<svg id="Capa_1" data-name="Capa 1" xmlns="http://www.w3.org/2000/svg" xmlns:xlink="http://www.w3.org/1999/xlink" viewBox="0 0 359.29 375.66"><defs><style>.cls-1{fill:url(#Degradado_sin_nombre_4);}.cls-2{opacity:0.42;fill:url(#Degradado_sin_nombre_4-2);}.cls-3{fill:url(#Degradado_sin_nombre_3);}</style><linearGradient id="Degradado_sin_nombre_4" y1="173.72" x2="359.29" y2="173.72" gradientUnits="userSpaceOnUse"><stop offset="0" stop-color="#71e8ff"/><stop offset="1" stop-color="#007dff"/></linearGradient><linearGradient id="Degradado_sin_nombre_4-2" x1="36.1" y1="172.97" x2="343.67" y2="172.97" xlink:href="#Degradado_sin_nombre_4"/><linearGradient id="Degradado_sin_nombre_3" x1="62.41" y1="188.15" x2="342.82" y2="188.15" gradientUnits="userSpaceOnUse"><stop offset="0" stop-color="#3000ff"/><stop offset="1" stop-color="#160075"/></linearGradient></defs><title>inicio</title><path class="cls-1" d="M61.13,71C75.44,82.48,93.21,88.9,107.86,99.93s26.39,29.76,20.62,47.17c-4.78,14.42-20,23.45-24.81,37.87-5.43,16.4,4.25,33.63,13.77,48s19.74,31.09,15.4,47.81c-4.52,17.39-23.37,27.24-41.15,29.87s-36.09.22-53.73,3.64S2.14,329.6,0,347.45l254.46-12.59c27.56-1.37,57.89-3.92,77.24-23.59,17.23-17.51,20.94-43.91,23-68.38a1255,1255,0,0,0,4-144.73c-.69-22.94-2.84-47.91-18.48-64.71C328.25,20.59,310.51,15,293.4,11A427.77,427.77,0,0,0,168.46.93a432.26,432.26,0,0,0-63.37,8.9C88,13.53,63.53,16.69,48.66,26.35,31.31,37.63,49.52,61.7,61.13,71Z"/><path class="cls-2" d="M71.1,61.14c8.57,12.66,22,21.06,35.4,28.48s27.32,14.44,38,25.4,17.59,27,13.34,41.68c-4.63,16-20.47,25.66-34.78,34.25s-29.67,19.64-32.12,36.14c-1.84,12.4,4.29,25,2.2,37.37C90.33,281,74.36,291.39,60.7,301.14S33,325.64,36.71,342l208.9-9c28.56-1.23,60.89-4.3,78.46-26.85,11.05-14.19,13.55-33.06,15.19-51A1054.17,1054.17,0,0,0,341.1,85.41c-1.36-19.53-3.89-40.51-17.05-55S290,11.3,270.54,8.65a523.06,523.06,0,0,0-131.77-1.1c-21,2.49-45.71,4.37-65.56,12C57,25.82,62.71,48.75,71.1,61.14Z"/><path class="cls-3" d="M91.68,92.59C103.92,115,122.62,133.14,137.41,154s25.92,46.78,19.71,71.56c-5.07,20.26-20.77,36-37,49.17S86.16,299.85,74.2,317s-16.78,41.38-5.08,58.68A2213.59,2213.59,0,0,1,320.5,361q10.14-125.29,20.29-250.57c2.43-30,4.7-61.11-6-89.2a36.86,36.86,0,0,0-5-9.68C320.59-.22,303.06,0,288.19,1.23L160.25,12.17c-22.29,1.9-69.57-4.64-78,22.9C76.93,52.69,81.53,77.36,91.68,92.59Z"/></svg>