<svg id="Capa_1" data-name="Capa 1" xmlns="http://www.w3.org/2000/svg" viewBox="0 0 1442 256"><defs><style>.cls-1,.cls-2,.cls-3{fill:#5000ca;}.cls-1{opacity:0.81;}.cls-2{fill-opacity:0.7;}.cls-3{fill-opacity:0.5;}</style></defs><title>wave1</title><path class="cls-1" d="M0,192l34.3-21.3C68.6,149,137,107,206,90.7,274.3,75,343,85,411,117.3,480,149,549,203,617,192c68.7-11,137-85,206-96,68.4-11,137,43,206,74.7,68.1,32.3,137,42.3,205,32,68.9-10.7,137-42.7,172-58.7l34-16V320H0Z" transform="translate(2 -64)"/><path class="cls-2" d="M-2,128l34.3,16C66.6,160,135,192,204,213.3,272.3,235,341,245,409,234.7c69-10.7,138-42.7,206-48,68.7-5.7,137,16.3,206,32C889.4,235,958,245,1027,240c68.1-5,137-27,205-58.7,68.9-32.3,137-74.3,172-96L1438,64V320H-2Z" transform="translate(2 -64)"/><path class="cls-3" d="M0,272l60-23.5c60-23.5,180-70.49,300-94S600,131,720,142.72,960,178,1080,181.86c120,4.18,240-12,300-19.54l60-7.85V319H0Z" transform="translate(2 -64)"/></svg>