<svg id="Capa_1" data-name="Capa 1" xmlns="http://www.w3.org/2000/svg" viewBox="0 0 1442 388"><defs><style>.cls-1,.cls-2,.cls-3{fill:#5000ca;}.cls-1{opacity:0.81;}.cls-2{fill-opacity:0.7;}.cls-3{fill-opacity:0.5;}</style></defs><title>wave2</title><path class="cls-1" d="M2,194l34.3-32.28C70.6,128.83,139,65.17,208,40.47c68.3-23.8,137-8.64,205,40.31C482,128.83,551,210.67,619,194,687.7,177.33,756,65.17,825,48.5c68.4-16.67,137,65.17,206,113.22,68.1,48.95,137,64.11,205,48.5,68.9-16.22,137-64.72,172-89L1442,97V388H2Z"/><path class="cls-2" d="M0,97l34.35,24.25C68.7,145.5,137.19,194,206.29,226.28c68.39,32.89,137.19,48,205.28,32.44C480.67,242.5,549.76,194,617.86,186c68.79-8.64,137.19,24.7,206.28,48.5,68.5,24.7,137.19,39.86,206.29,32.28,68.19-7.58,137.19-40.92,205.28-89,69-48.95,137.19-112.61,172.24-145.5L1442,0V388H0Z"/><path class="cls-3" d="M2,315.19l60-35.61C122,244,242,172.73,362,137.11s240-35.61,360-17.8,240,53.42,360,59.32c120,6.34,240-18.14,300-29.61l60-11.91V386.42H2Z"/></svg>