<svg id="Capa_1" data-name="Capa 1" xmlns="http://www.w3.org/2000/svg" viewBox="0 0 734 424"><defs><style>.cls-1{opacity:0.67;}.cls-2{fill:#40bad5;}.cls-3{fill:#035aa6;}.cls-4{opacity:0.5;}.cls-5{fill:#fcbf1e;}.cls-6{opacity:0.74;}.cls-7{fill:#120136;}</style></defs><title>design_5</title><g class="cls-1"><path class="cls-2" d="M1384,445v85H730.36C699.78,530,675,511,675,487.5S699.78,445,730.36,445Z" transform="translate(-664 -216)"/></g><g class="cls-1"><path class="cls-3" d="M721.44,331v.07c-1-.05-2.05-.07-3.08-.07-30,0-54.36,18.36-54.36,41s24.34,41,54.36,41c1,0,2.06,0,3.08-.07V413H1384V331Z" transform="translate(-664 -216)"/></g><g class="cls-4"><path class="cls-5" d="M1398,562v78H746c-22.11,0-40-17.46-40-39s17.93-39,40-39Z" transform="translate(-664 -216)"/></g><g class="cls-6"><path class="cls-7" d="M763.17,216C739.32,216,720,231.89,720,251.5S739.32,287,763.17,287H1384V216Z" transform="translate(-664 -216)"/></g></svg>