<svg id="Capa_1" data-name="Capa 1" xmlns="http://www.w3.org/2000/svg" xmlns:xlink="http://www.w3.org/1999/xlink" viewBox="0 0 123.07 123.07"><defs><style>.cls-1{fill:url(#Degradado_sin_nombre_19);}.cls-2{fill:#c7bda1;}.cls-3{fill:#fff;}.cls-4{fill:#666;}.cls-5{fill:#e6e6e6;}.cls-6{fill:#f2f2f2;}</style><radialGradient id="Degradado_sin_nombre_19" cx="61.54" cy="61.54" r="61.54" gradientUnits="userSpaceOnUse"><stop offset="0" stop-color="#f26f63" stop-opacity="0.9"/><stop offset="0.21" stop-color="#f26f63" stop-opacity="0.92"/><stop offset="0.48" stop-color="#f26f63" stop-opacity="0.99"/><stop offset="0.52" stop-color="#f26f63"/></radialGradient></defs><title>design_3</title><circle class="cls-1" cx="61.54" cy="61.54" r="61.54"/><path class="cls-2" d="M82.35,65.72l-1.93-14L73.31,52a23.5,23.5,0,0,0-1.75-3l3.77-6L64,34.37l-4.81,5.26a23.21,23.21,0,0,0-3.35-.88l-1.61-6.94L40.21,33.73l.32,7.11a24.49,24.49,0,0,0-3,1.75l-6-3.77-8.58,11.3,5.26,4.81a23.45,23.45,0,0,0-.89,3.34l-6.93,1.62,1.92,14,7.11-.32a25.41,25.41,0,0,0,1.75,3l-3.77,6,11.3,8.57L43.48,86a23.91,23.91,0,0,0,3.35.88l1.61,6.94,14.05-1.93-.33-7.11a23.5,23.5,0,0,0,3-1.75l6,3.77,8.57-11.3-5.25-4.8a25.11,25.11,0,0,0,.88-3.36ZM53.28,76.86a14.19,14.19,0,1,1,12.12-16A14.18,14.18,0,0,1,53.28,76.86Z"/><path class="cls-3" d="M51.35,79.23A16.43,16.43,0,1,1,67.78,62.8,16.45,16.45,0,0,1,51.35,79.23Zm0-32A15.56,15.56,0,1,0,66.91,62.8,15.56,15.56,0,0,0,51.35,47.25Z"/><path class="cls-3" d="M51.35,85.05A22.25,22.25,0,1,1,73.6,62.8,22.27,22.27,0,0,1,51.35,85.05Zm0-43.94A21.69,21.69,0,1,0,73,62.8,21.71,21.71,0,0,0,51.35,41.11Z"/><path class="cls-4" d="M96,50h0l6.81-8.88L95.15,30V40.92H85.61V30L78.17,41.16,84.86,50h0V83.19A7.36,7.36,0,1,0,96,83.65ZM90.37,91.89A3.64,3.64,0,1,1,94,88.25,3.64,3.64,0,0,1,90.37,91.89Z"/><polygon class="cls-5" points="84.5 33.41 79.31 41.13 85.89 49.55 94.92 49.69 86.41 48.71 80.43 40.96 84.5 33.41"/><polygon class="cls-6" points="86.3 51.08 86.49 81.99 89.36 81.58 87.51 80.51 86.86 56.05 86.3 51.08"/></svg>