<svg xmlns="http://www.w3.org/2000/svg" xmlns:xlink="http://www.w3.org/1999/xlink" viewBox="0 0 123.07 123.07"><defs><style>.cls-1{isolation:isolate;}.cls-2{fill:url(#Degradado_sin_nombre_9);}.cls-3{fill:#c4c0b7;}.cls-4{fill:#d8d8d8;}.cls-5{fill:#fff;}.cls-6{fill:#c1c1c1;mix-blend-mode:multiply;}.cls-7{fill:#be1e2d;}.cls-8{fill:#786d4e;}</style><radialGradient id="Degradado_sin_nombre_9" cx="61.54" cy="61.54" fx="123.07101445382621" r="61.54" gradientUnits="userSpaceOnUse"><stop offset="0.18" stop-color="#54887a"/><stop offset="0.81" stop-color="#54887a"/></radialGradient></defs><title>design_1</title><g class="cls-1"><g id="Capa_1" data-name="Capa 1"><circle class="cls-2" cx="61.54" cy="61.54" r="61.54"/><polygon class="cls-3" points="62.66 91.03 62 90.37 62 90.24 61.94 90.3 61.87 90.24 61.87 90.37 61.21 91.03 48.69 98.45 61.87 98.45 62 98.45 75.18 98.45 62.66 91.03"/><rect class="cls-4" x="57.43" y="87.15" width="9.01" height="6.18"/><rect class="cls-3" x="21.27" y="33.98" width="81.33" height="55.1"/><rect class="cls-4" x="24.79" y="38.75" width="74.29" height="45.48"/><rect class="cls-5" x="27.44" y="46.35" width="68.99" height="37.88"/><rect class="cls-6" x="24.79" y="38.75" width="74.29" height="2.56"/><rect class="cls-7" x="24.79" y="79.73" width="74.29" height="4.5"/><path class="cls-8" d="M59.1,60.64l-.88-6.48-3.28.15a10.54,10.54,0,0,0-.8-1.38l1.74-2.78-5.21-4-2.21,2.42a11.75,11.75,0,0,0-1.55-.4L46.17,45l-6.48.89.15,3.27a11.87,11.87,0,0,0-1.38.81l-2.79-1.73-4,5.2,2.43,2.21a10.41,10.41,0,0,0-.41,1.55l-3.2.74.89,6.47,3.28-.14a10.54,10.54,0,0,0,.8,1.38l-1.74,2.78,5.21,4L41.2,70a11.25,11.25,0,0,0,1.54.41l.74,3.2L50,72.69l-.15-3.28a11.8,11.8,0,0,0,1.38-.8L54,70.34l4-5.2L55.5,62.92a11.25,11.25,0,0,0,.41-1.54ZM45.71,65.77a6.54,6.54,0,1,1,5.59-7.36A6.53,6.53,0,0,1,45.71,65.77Z"/><path class="cls-5" d="M44.83,66.86a7.57,7.57,0,1,1,7.56-7.57A7.58,7.58,0,0,1,44.83,66.86Zm0-14.73A7.17,7.17,0,1,0,52,59.29,7.17,7.17,0,0,0,44.83,52.13Z"/><path class="cls-5" d="M44.83,69.55A10.26,10.26,0,1,1,55.08,59.29,10.27,10.27,0,0,1,44.83,69.55Zm0-20.25a10,10,0,1,0,10,10A10,10,0,0,0,44.83,49.3Z"/><path class="cls-8" d="M95.57,61.82l-1.09-7.94-4,.19a13,13,0,0,0-1-1.7L91.6,49l-6.38-4.85-2.71,3a13.61,13.61,0,0,0-1.9-.5l-.91-3.92-7.94,1.08.18,4a14,14,0,0,0-1.69,1l-3.41-2.12L62,53l3,2.72a14.54,14.54,0,0,0-.49,1.89l-3.92.91,1.08,7.94,4-.18a13.58,13.58,0,0,0,1,1.69L64.5,71.4l6.39,4.84,2.71-3a13.61,13.61,0,0,0,1.9.5l.91,3.92,7.93-1.08-.18-4a13,13,0,0,0,1.7-1l3.41,2.13,4.85-6.39-3-2.71a13.61,13.61,0,0,0,.5-1.9Zm-16.43,6.3a8,8,0,1,1,6.85-9A8,8,0,0,1,79.14,68.12Z"/><path class="cls-5" d="M78.05,69.46a9.29,9.29,0,1,1,9.29-9.28A9.3,9.3,0,0,1,78.05,69.46Zm0-18.08a8.8,8.8,0,1,0,8.79,8.8A8.81,8.81,0,0,0,78.05,51.38Z"/><path class="cls-5" d="M78.05,72.75A12.58,12.58,0,1,1,90.62,60.18,12.59,12.59,0,0,1,78.05,72.75Zm0-24.83A12.26,12.26,0,1,0,90.31,60.18,12.27,12.27,0,0,0,78.05,47.92Z"/></g></g></svg>