<svg xmlns="http://www.w3.org/2000/svg" xmlns:xlink="http://www.w3.org/1999/xlink" viewBox="0 0 123.07 123.07"><defs><style>.cls-1{isolation:isolate;}.cls-2{fill:url(#Degradado_sin_nombre_16);}.cls-3{fill:#be1e2d;}.cls-4{fill:#9b8579;}.cls-5,.cls-8{fill:#f2f2f2;}.cls-6{fill:#3c2415;}.cls-7{fill:#e56c80;}.cls-8,.cls-9{mix-blend-mode:multiply;}.cls-10,.cls-9{fill:#e8e5e3;}</style><radialGradient id="Degradado_sin_nombre_16" cx="61.54" cy="61.54" r="61.54" gradientUnits="userSpaceOnUse"><stop offset="0" stop-color="#2f4c73" stop-opacity="0.9"/><stop offset="0.03" stop-color="#2f4c73" stop-opacity="0.92"/><stop offset="0.16" stop-color="#2f4c73" stop-opacity="0.98"/><stop offset="0.52" stop-color="#2f4c73"/></radialGradient></defs><title>design_4</title><g class="cls-1"><g id="Capa_1" data-name="Capa 1"><circle class="cls-2" cx="61.54" cy="61.54" r="61.54"/><path class="cls-3" d="M40.53,64.58s2.29,17.52.71,21.52,1.33,6.7,4.48,7,5.91-3.36,4.75-6.63-1.44-3-1.44-3l1.57-2L49,79.09l1.91-2.18L49.1,74.79l1.35-2.12-2.09-2.25-.45-5.65Z"/><polygon class="cls-4" points="73.4 41.79 92.65 22.53 92.65 92.92 74.94 75.2 72.51 72.78 73.4 41.79"/><polygon class="cls-5" points="78.9 79.09 34.88 64.44 34.72 51.98 78.9 36.28 78.9 79.09"/><path class="cls-6" d="M29.22,58.13a6.64,6.64,0,1,1-6.64-6.63A6.64,6.64,0,0,1,29.22,58.13Z"/><rect class="cls-3" x="18.56" y="50.91" width="19.36" height="14.34"/><polygon class="cls-7" points="29.34 52.35 20.12 52.35 20.12 61.25 22.71 54.29 29.34 52.35"/><polygon class="cls-8" points="39.49 51.98 77.12 38.63 77.12 43.57 39.49 51.98"/><polygon class="cls-9" points="39.41 64.28 77.44 77.39 77.44 71.4 39.41 64.28"/><polygon class="cls-10" points="80.19 37.42 80.19 42.43 91.68 25.44 80.19 37.42"/><polygon class="cls-10" points="85.53 83.21 90.87 88.72 90.87 83.7 85.53 83.21"/><path class="cls-7" d="M47.53,90.52a4.34,4.34,0,0,1-4.33-4.34,4.3,4.3,0,0,1,.17-1.2,4,4,0,1,0,5.76,5.23A4.47,4.47,0,0,1,47.53,90.52Z"/></g></g></svg>