<svg xmlns="http://www.w3.org/2000/svg" xmlns:xlink="http://www.w3.org/1999/xlink" viewBox="0 0 123.07 123.07"><defs><style>.cls-1{isolation:isolate;}.cls-2{fill:url(#Degradado_sin_nombre_15);}.cls-3{fill:#594a42;}.cls-4{fill:#f2f2f2;}.cls-5{fill:#006838;}.cls-6{fill:#009444;}.cls-7{fill:#39b54a;}.cls-8{fill:#8dc63f;}.cls-9{fill:#e5e5e5;mix-blend-mode:multiply;}.cls-10{fill:#968b87;}</style><radialGradient id="Degradado_sin_nombre_15" cx="61.54" cy="61.54" r="61.54" gradientUnits="userSpaceOnUse"><stop offset="0" stop-color="#658791" stop-opacity="0.9"/><stop offset="0.29" stop-color="#658791" stop-opacity="0.94"/><stop offset="0.52" stop-color="#658791"/></radialGradient></defs><title>design_2</title><g class="cls-1"><g id="Capa_1" data-name="Capa 1"><circle class="cls-2" cx="61.54" cy="61.54" r="61.54"/><path class="cls-3" d="M43.94,99.94a2.85,2.85,0,0,1-.41,0,2.21,2.21,0,0,1-1.76-2.57l2.94-15.67a2.2,2.2,0,0,1,4.33.81L46.1,98.14A2.2,2.2,0,0,1,43.94,99.94Z"/><path class="cls-3" d="M75.27,79.86a2.71,2.71,0,0,0-.41,0,2.21,2.21,0,0,0-1.76,2.57L76,98.14a2.2,2.2,0,1,0,4.33-.81L77.43,81.66A2.2,2.2,0,0,0,75.27,79.86Z"/><rect class="cls-3" x="32.92" y="30.3" width="56.3" height="59.72"/><rect class="cls-4" x="34.14" y="33.48" width="53.85" height="53.36"/><path class="cls-3" d="M61.07,33.48A1.47,1.47,0,0,1,59.6,32V25.4a1.47,1.47,0,0,1,2.94,0V32A1.47,1.47,0,0,1,61.07,33.48Z"/><rect class="cls-5" x="46.03" y="67.7" width="4.71" height="9.41"/><rect class="cls-5" x="52.37" y="65.65" width="4.71" height="11.46"/><rect class="cls-6" x="58.71" y="62.78" width="4.71" height="14.33"/><rect class="cls-7" x="65.06" y="58.9" width="4.71" height="18.21"/><rect class="cls-8" x="71.4" y="53.37" width="4.71" height="23.74"/><polygon class="cls-5" points="80.42 41.13 71.31 43.65 73.24 44.7 66.02 50.42 56.86 47.37 41.72 58.91 43.73 61.54 57.47 51.05 66.67 54.12 75.29 47.3 75.87 49.41 80.42 41.13"/><polygon class="cls-9" points="62.89 34.4 35.17 34.4 35.17 76.07 39.21 37.52 62.89 34.4"/><polygon class="cls-9" points="72.74 85.37 86.69 85.37 86.69 52.88 84.67 82.8 72.74 85.37"/><path class="cls-10" d="M44.29,90.18l-1.47,7.15s0,1.66,1.47.37S44.29,90.18,44.29,90.18Z"/><path class="cls-10" d="M75.8,90.32l1.32,7.18s.62,1.54,1.5-.21S75.8,90.32,75.8,90.32Z"/></g></g></svg>