<svg id="Capa_1" data-name="Capa 1" xmlns="http://www.w3.org/2000/svg" xmlns:xlink="http://www.w3.org/1999/xlink" viewBox="0 0 1669.16 1005.44"><defs><style>.cls-1{fill:none;}.cls-2{fill:#ffdf42;opacity:0.25;}.cls-3{fill:#00a982;}.cls-4{fill:#008d68;}.cls-5{fill:#ff8b00;}.cls-6{fill:#7b27ab;}.cls-7{fill:#bf0101;}.cls-8{fill:#ee9759;}.cls-9{fill:#e18340;}.cls-10{fill:#a56b48;}.cls-11{fill:#eeccb2;}.cls-12{fill:#f6a670;}.cls-13{fill:#ae69d1;}.cls-14{fill:#313c60;}.cls-15{fill:#ffbc59;}.cls-16{fill:#ff3a3d;}.cls-17{fill:#e2baf8;}.cls-18{fill:#fff;}.cls-19{opacity:0.5;}.cls-20{fill:#f19690;}.cls-21{fill:#9ad297;}.cls-22{clip-path:url(#clip-path);}</style><clipPath id="clip-path"><path class="cls-1" d="M123,323.54a66.73,66.73,0,1,0,66.72,66.72A66.72,66.72,0,0,0,123,323.54Zm0,102.07a35.35,35.35,0,1,1,35.34-35.35A35.35,35.35,0,0,1,123,425.61Z"/></clipPath></defs><title>inicio</title><path class="cls-2" d="M1394.37,341.69C1462.34,271,1129.12,25.12,854,2.7,600.61-17.94,265.9,82,605.72,229.72,929.5,370.48,1358.85,378.62,1394.37,341.69Z"/><path class="cls-2" d="M64.39,292.11c158.7-200.77,492,11.29,777.12,62.8s749-30.33,747.81,195.6c-1.24,240.88-104.1,376.41-668.27,441.13S98.57,856.9,24.81,644.54C-32.61,479.23,22,345.77,64.39,292.11Z"/><path class="cls-3" d="M1152.52,548.55C1129.23,595.84,1100,725,1092.06,732.11s-54,34.52-61.94,47.79-4.43,8.85-.89,9.74,203.54,1.76,203.54,1.76-23-137.16-25.67-138S1152.52,548.55,1152.52,548.55Z"/><path class="cls-4" d="M1119.4,790.77c36.73.25,75.49.45,96.83.56L1187,616.62c-15.58-30.21-34.5-68.07-34.5-68.07-2.94,6-6,13.23-9,21.38-3,131.23,15.87,168,1.68,191.39C1134.08,779.56,1124,787.73,1119.4,790.77Z"/><path class="cls-3" d="M1275.17,491.49c33.22,30.66,107.16,59.74,107.16,59.74s11.23,103.79,3.57,162.56-3.41,70.69-3.41,70.69l-159.67,1.36s-13.25-29.75-50.71-118c-23.85-56.22-19.59-119.25-19.59-119.25l92.84-41.73Z"/><path class="cls-4" d="M1230,784.48h152.46s-4.26-11.92,3.41-70.69c6.31-48.39-.19-127.31-2.69-153.67l-13.86-5.94c-34.81,10-54.87,62-60.77,112.68-3.95,33.95-60.19,67.37-97,85.77C1223.68,775.68,1230,784.48,1230,784.48Z"/><path class="cls-4" d="M1249.5,528.37s1.43,43.83,8.91,43.36,50.92-55.58,50.92-55.58l-7.38-3.53Z"/><path class="cls-5" d="M1238.26,525.86s-9.45,40.32-14.13,39.38-11-41.93-11-41.93Z"/><path class="cls-6" d="M1236.51,520.83l13,1.41,5,15.48s-11.43,13.38-11.66,18.77,2.51,25.56,2.66,43.86-6.57,91.12-3.52,135.73l3,44.62-26.12,1s-1.4-49.08,0-101.62,16.36-123.61,16.36-123.61l-5.9-18.07Z"/><path class="cls-7" d="M1192.65,385c-18.38,40.93,3.68,78.85,3,77.25s27.82-69.1,27.82-69.1Z"/><path class="cls-8" d="M1262.3,415.22l23.3,85.19a7.7,7.7,0,0,1-1.47,6.9c-5.47,6.74-13.25,20.59-29,25a38.56,38.56,0,0,1-9.86,1.11,6.65,6.65,0,0,1-6.56-5.38l-15.62-80.81Z"/><path class="cls-9" d="M1257.84,422.34l-8.52,3.49-26.19,21.43,10,51.22,4,20.42C1261,504,1269.78,479.79,1257.84,422.34Z"/><path class="cls-8" d="M1256.39,453.86c0,28.49-17.16,50.94-38.37,50.14s-34.22-16.85-38.44-53.06c-3.3-28.4,4.9-61.46,26.11-60.65S1256.37,425.36,1256.39,453.86Z"/><path class="cls-3" d="M1382.33,551.23c30.84,7,36.58,69.62,46.61,135.69,1.15,7.61,7.08,72,7.08,72a19.7,19.7,0,0,1-11.21,17.7c-10.09,5-14.16,8.85-72.57,9.44-56.1.57-128.42-1.77-128.42-1.77s-.64-20.87,5.11-31.07c8.65-15.34,97.35-37.37,105.61-38.55,1.18-16.52-8.15-76.29,4.72-116.81,8.85-27.88,18.36-42.48,30.28-46.3A23.89,23.89,0,0,1,1382.33,551.23Z"/><path class="cls-4" d="M1255.54,785.54c27.65.42,65.6.81,96.7.5,58.41-.59,62.48-4.4,72.57-9.44,11.8-5.9,12.39-15.93,12.39-15.93s-6-68.5-7.08-76.11c-6.49-44.25-13.51-94.88-29.83-119.32,15.34,45,17.81,82.9,18.09,99.11.14,8.21-.62,19.44-3,27.29-2.66,8.71-9.44,14.16-20.06,11.21-21.24-5.9-47.79,6.49-47.79,6.49s20.06-7.08,38.94-.59,57.82,49.56,15.34,65.49C1388.8,779.12,1310.94,783.09,1255.54,785.54Z"/><path class="cls-4" d="M1233.65,755.17s7.87-13.38,24-13.38,14.95,26.35,12.59,35-11.8,9-11.8,9L1226,785Z"/><path class="cls-6" d="M914.33,786.25h271a13.58,13.58,0,0,0-13.58-13.58H914.33Z"/><path class="cls-8" d="M1227.78,753c-32.67-15-41.9-11.21-49.33-14.08-18.34-7.09-23.45-2.79-38.44,29.48-3,6.43,4.1,7.46,11.16,8.06s16.84-12.38,19.72-13.71,10.39-1.48,10.39-1.48-2.35-.2-6.48,6.55-8.68,9.13-3.19,9.6,7-8.48,17.06-5.65,8,12.37,33.53,11.54c24.24-.78,42.35,1.64,43.24-13.67.84-14.54,3.07-21.65-10.47-25.37C1244.56,741.44,1227.78,753,1227.78,753Z"/><path class="cls-10" d="M1228.22,753.08c22.75-.63,13.74,26.88,11.19,29s12.47,1.9,12.47,1.9,8-10.67,3.19-24.1-16.48-15-16.48-15l-10.46,4.64Z"/><path class="cls-4" d="M1250.86,747.53c.18,3.5-5.38,6.64-12.42,7s-12.9-2.17-13.08-5.67,5.38-6.63,12.42-7S1250.68,744,1250.86,747.53Z"/><path class="cls-3" d="M1248.84,746.06c.17,3.12-4.8,5.92-11.1,6.25s-11.52-1.95-11.68-5.07,4.81-5.93,11.1-6.25S1248.68,742.93,1248.84,746.06Z"/><path class="cls-11" d="M1244.76,745.15c.12,2.25-3.46,4.27-8,4.5s-8.29-1.4-8.41-3.65,3.46-4.26,8-4.5S1244.65,742.9,1244.76,745.15Z"/><path class="cls-8" d="M1050.81,755.14c16.79-9.33,37.32-6.22,44.79,3.11s8.7,15.55-8.09,15.55-50.39,1.25-56,.63S1050.81,755.14,1050.81,755.14Z"/><path class="cls-8" d="M1072.64,751.9c18-4.36,30.36,6.14,45.41,16.17,13.06,8.71,15.69,17.18,1.24,9.95-21.15-10.57-33.59-11.82-33.59-11.82Z"/><path class="cls-8" d="M1052.5,760.07c-9.11,0-17.06-2.91-23.49-2.37s-26.8,21.44-23.58,23a6.5,6.5,0,0,0,.75.32,11,11,0,0,0,13-4.56c2.88-4.63,7.57-10,13-8.08a58,58,0,0,0,18.67,2.9Z"/><path class="cls-12" d="M1053.92,777.54c-9.33-3.74,5.6-34.84,10.57-34.84s23.64,14.93,23.64,14.93-4.39,2.48-19.28-2.49c-3.74-1.24-6.85,19.91-11.2,22.4S1053.92,777.54,1053.92,777.54Z"/><polygon class="cls-4" points="1233.89 502.23 1238.26 525.54 1225.48 553.2 1211.6 523.88 1233.89 502.23"/><path class="cls-7" d="M1182.55,467.05c5.36,33.84,17.89,37.42,26.76,40.51s42.06-10.86,45.59-20.12c9-23.71-5.55-41.57-2.59-41.8s7.15,7.57,16.71,16.94c.89.87,7,6.61,6.89,4.35-2.06-30.81,11.92-43.07,2.54-72.89-6.91-22-20.85-17.55-20.85-17.55s-12.69-17.12-41-9.69c-18.94,5-34.68,15.63-53.54,24.38s32.66,45.65,55.31,24.51,16.64,17.31,21.21,19.37,2,0,7.29,18.14-16,34.54-22.4,37.37c-20.57,9-24.82,6.14-31-1.09C1188.09,483.21,1182.55,467.05,1182.55,467.05Z"/><path class="cls-8" d="M1269.64,440.18c-.9,8.94-5.92,15.54-11.2,14.73s-6.72-7.67-8-17.65c-1.12-9,5.91-15.54,11.2-14.74S1270.54,431.23,1269.64,440.18Z"/><path class="cls-3" d="M1283.68,493.38,1306.85,515s-44.59,42-48.44,41.51S1248,520.83,1248,520.83Z"/><path class="cls-3" d="M1248.68,520.31c-4.28,2-2.9,8.11-4.72,10.23s-2.89,2.69-4.35-.26-1.23-9.63-2.36-10-9.74,26.56-9.74,26.56,6.33-17.2,7.76-15.33.3,3.63,5.53,3.94,11.89-1.89,11.89-1.89Z"/><path class="cls-6" d="M914,786.25h144.75L997.28,651a11.06,11.06,0,0,0-10.06-6.48H856.29a4.31,4.31,0,0,0-3.92,6.1Z"/><path class="cls-13" d="M842.22,644.54H975.81A11,11,0,0,1,985.87,651l61.47,135.23H899.93L838.29,650.64A4.32,4.32,0,0,1,842.22,644.54Z"/><path class="cls-6" d="M911.86,723.27c5.07,10.5,13.29,17,18.36,14.58s5.08-13,0-23.45-13.29-17-18.37-14.58S906.79,712.77,911.86,723.27Z"/><path class="cls-14" d="M394.71,544.69c-2.25,0-4.47-.11-6.64-.22-1.8-.09-3.65-.19-5.45-.21a1.15,1.15,0,0,1,0-2.29c1.85,0,3.73.12,5.55.22,13.59.68,27.64,1.4,41.34-24.93,5.94-11.43,12.41-33.66,11.08-58.67-1.09-20.49-8-49.64-34.93-72.13a1.14,1.14,0,1,1,1.46-1.75c27.54,23,34.64,52.81,35.75,73.76,1.36,25.47-5.26,48.15-11.34,59.84C419.47,541.55,406.61,544.69,394.71,544.69Z"/><path class="cls-14" d="M390.44,539.29c-.53,0-1.06,0-1.6,0a1.13,1.13,0,0,1-1.08-1.19A1.14,1.14,0,0,1,389,537c.5,0,1,0,1.48,0,14.18,0,27.28-10,36.13-27.79,14.54-29.18,16-77.05-10.08-108.3a1.14,1.14,0,1,1,1.75-1.46c26.66,32,25.24,81,10.37,110.78C419.35,528.79,405.51,539.29,390.44,539.29Z"/><path class="cls-14" d="M339.57,393.51c41-31.85,79.58-15,93.39,28.15,12.9,40.27-3.63,126.8-64.85,111.72-63.34-15.6-68.62-35-68.14-63.17C300.36,447.7,310,416.49,339.57,393.51Z"/><path class="cls-15" d="M318.24,521.23l-58.66,21.89S276,662.27,277.4,707.77s-21.57,85-21.57,85H409.22s21.12-123.91,16.89-167.54-33.3-88.83-34.71-89.92-36.59-9.06-36.59-9.06Z"/><path class="cls-7" d="M421.42,667.9s5.91,55.35,8.35,58.17S522.28,773,522.28,773L391.4,781.89Z"/><path class="cls-7" d="M391.4,535.29c14.54.32,18.49,24.1,21.91,41.76S391.4,535.29,391.4,535.29Z"/><path class="cls-16" d="M366.54,629.43c-8-28.61-50.83-108.3-50.83-108.3l-56.13,22s12.87,93.38,16.8,146.38L297.7,792.75h68.84S374.51,658.05,366.54,629.43Z"/><polygon class="cls-7" points="287.31 742.47 350.59 727.95 345.42 781.89 287.31 742.47"/><path class="cls-7" d="M319,757.5c-10.32-14-20.42-29.35-10.58-61.45s10.79-43.63,7.34-72.72-19.07-75.52-49.56-76.93c0,0-1,10.17-2.63,26.41,5,38.35,12.92,103.86,13.88,135,1.41,45.51-21.57,85-21.57,85l124.78,2.75S329.27,771.47,319,757.5Z"/><path class="cls-16" d="M426.11,625.21c-4.22-43.63-33.3-88.83-34.71-89.92-.87-.67-14.64-4-25-6.4,3.06,7.21,35.28,84,33.94,115.65-1.41,33.21,0,148.21,0,148.21h8.87S430.34,668.84,426.11,625.21Z"/><path class="cls-2" d="M736.61,891.34c-1.58-.77-3-1.36-4.24-2.09a9.79,9.79,0,0,1-3.15-2.82c-.86-1.18-1.62-2.43-2.54-3.82a14.1,14.1,0,0,1-10.27,8.57c1,.41,1.66.66,2.3.94a11.65,11.65,0,0,1,6.66,14.23,11.68,11.68,0,0,1-22.81-2.82,11.69,11.69,0,0,1,7.25-11.46l2-.75c-1.51-.67-2.86-1.19-4.15-1.85a9.88,9.88,0,0,1-3.27-2.69c-.91-1.16-1.68-2.42-2.57-3.71-.63.29-.71,1-1,1.45s-.77,1.19-1.21,1.75a13.32,13.32,0,0,1-1.32,1.39,14.15,14.15,0,0,1-1.5,1.18,12.5,12.5,0,0,1-1.65,1c-.64.3-1.32.52-2,.76s-1.2.4-2,.67c.82.26,1.42.44,2,.65a11.58,11.58,0,1,1-7.14,0c.54-.17,1.09-.31,2-.56-2.65-.85-5-1.58-6.94-3.29a14.09,14.09,0,0,1-4-6.07c-.83.14-.79.75-1,1.15a13,13,0,0,1-9,7.5c-4,1-7.58-.07-10.8-2.48a12.35,12.35,0,0,1-3.87-5c-.19-.42-.16-1-.87-1.19-2.57,6.05-7,9.31-13.75,8.63-5.46-.54-9.26-4.29-11-10.5-.61.29-.59.88-.74,1.37a12.43,12.43,0,0,1-23.22,1.9c-.44-1-.77-2-1.15-3-.71.22-.65.89-.81,1.37a11.92,11.92,0,0,1-2.79,4.72c-3.57,3.65-7.9,4.8-12.68,3.2A11.5,11.5,0,0,1,577,879.07c-.43-5.06,1.74-8.93,6-11.61.48-.3,1-.56,1.46-.85,0,0,.06-.12.16-.3-.46-.61-1.3-.69-1.91-1.11s-1.36-.77-2-1.22a12.66,12.66,0,0,1-1.61-1.39,17.24,17.24,0,0,1-1.5-1.8c-.46-.62-.85-1.29-1.36-2.08-.25.22-.5.34-.62.55a13.9,13.9,0,0,1-8.34,6.52,2.71,2.71,0,0,0-.48.29c.43.63,1.15.72,1.73,1a11.93,11.93,0,0,1,5.75,5.18,12,12,0,0,1-14.24,17.23,11.93,11.93,0,0,1-8.2-11.08,11.8,11.8,0,0,1,7.21-11.32l2-.9c-2.28-1-4.39-1.73-6.1-3.26a18.09,18.09,0,0,1-3.78-5.25c-.6-.1-.62.37-.81.61a5.94,5.94,0,0,0-.4.75,12.62,12.62,0,0,1-9,6.51c-5,.93-9.22-.75-12.52-4.62a19.08,19.08,0,0,1-1.68-2.7c-.25-.41-.46-.85-.66-1.24-.62,0-.57.45-.73.72a7.69,7.69,0,0,0-.38.76,12.3,12.3,0,0,1-5.06,5.31,12.65,12.65,0,0,1-18.41-7.69c-.16-.61-.29-1.23-.45-1.86-.69.16-.55.75-.65,1.19a12.29,12.29,0,0,1-19.47,7.07,11.61,11.61,0,0,1-4.6-11.66,11.76,11.76,0,0,1,6.48-9l1.31-.7c.05,0,.09-.11.13-.16-6.84-3.76-6-4.25-8.62-7.69-.7.52-.93,1.39-1.49,2s-1.1,1.31-1.72,1.88a13.16,13.16,0,0,1-2,1.53,16.23,16.23,0,0,1-2.29,1.13c-.75.3-1.54.52-2.72.9,1,.39,1.65.64,2.29.87a11.92,11.92,0,0,1,4.78,19.1,11.92,11.92,0,1,1-13.87-18.74c.88-.39,1.81-.7,2.85-1.1-.38-.59-.94-.49-1.35-.66s-.94-.32-1.4-.5a11,11,0,0,1-1.35-.62,12.71,12.71,0,0,1-1.27-.78c-.45-.34-.9-.69-1.32-1.07a13,13,0,0,1-1-1.05,11.64,11.64,0,0,1-.93-1.17,14.79,14.79,0,0,1-.77-1.27c-.24-.44-.44-.89-.66-1.34s-.4-.83-.7-1.48c-.72,1-.88,2-1.43,2.81a21.06,21.06,0,0,1-1.78,2.38,12.62,12.62,0,0,1-2.27,1.92,12.14,12.14,0,0,1-2.65,1.32,13.12,13.12,0,0,1-2.91.62,15.51,15.51,0,0,1-3,0,12,12,0,0,1-7.16-3.43,14.85,14.85,0,0,1-3.81-7.06c-.3.84-.52,1.42-.72,2a12.17,12.17,0,1,1-17-14.85l1.5-.78s0-.12.12-.34c-.69-.51-1.59-.72-2.34-1.19a17.61,17.61,0,0,1-2.11-1.41,15,15,0,0,1-2-2,14.29,14.29,0,0,1-1.41-2.13c-.44-.8-.78-1.65-1.21-2.58a4.86,4.86,0,0,0-1.08,1.86,12.94,12.94,0,0,1-7.28,6.48c-5.41,2.09-11.31-.5-14.08-4.28a12.28,12.28,0,0,1-1.3-13.26,6.17,6.17,0,0,1,.43-.74c.11-.17.26-.32.48-.59a66,66,0,0,1,6.91-.12c2.27,0,4.54,0,6.81,0h7.1c.64,1.17,1.25,2.27,2,3.52.6-1.23,1.13-2.3,1.67-3.38.5,0,.91-.13,1.33-.13h19.6c1.16,0,1.16,0,2.26.81a2.69,2.69,0,0,1,2.26-.81h724.34a2.66,2.66,0,0,1,2.26.8c1.16-.77,1.16-.8,2.08-.8h20.66c.2,0,.41.06.75.1.43.71.91,1.47,1.46,2.35l1.55-2.41h21c1.42,1.51,1.71,3.51,2.21,5.34.57.13.53-.26.57-.49a12.21,12.21,0,0,1,2-4.73,27.41,27.41,0,0,1,5-.17c1.63,0,3.26,0,4.89,0h9.88c2.74,3,3.33,8.84.85,13.14a12.3,12.3,0,0,1-11.82,6.08c-5.56-.61-9.15-4-11.06-10.52-.58.09-.51.59-.59,1a12.35,12.35,0,0,1-4.13,7,11.92,11.92,0,0,1-3.82,2.26l-2.88,1,2.42.87a11,11,0,0,1,5.67,4.29,11.34,11.34,0,0,1,.6,12.66,11.81,11.81,0,0,1-21.26-1.42,11.75,11.75,0,0,1,6.87-15.5c.71-.24,1.42-.53,2.26-.84-4-1.83-5.26-.81-10.27-8.15-2.74,4.07-1.89,4.38-8.63,8.3.48.28.87.54,1.28.76a12.05,12.05,0,0,1,6.85,9.87,12.35,12.35,0,0,1-9.48,13.12,12.22,12.22,0,0,1-14.31-7.88c-.27-.72-.5-1.47-.83-2.46a12.83,12.83,0,0,0-.53,1.3,13.08,13.08,0,0,1-3.1,5.75,12.7,12.7,0,0,1-20.44-2.62c-.36-.66-.7-1.33-1.17-2.24a18.85,18.85,0,0,1-3.94,6,15.89,15.89,0,0,1-6.07,3.24c-.07.5.22.58.48.67a14.21,14.21,0,0,1,3.78,1.93,12,12,0,0,1-7,21.62,12,12,0,0,1-4.9-23.07l1.73-.69c.1-.43-.14-.54-.42-.62a14.66,14.66,0,0,1-4.23-2,13.37,13.37,0,0,1-3.54-3.65c-.26-.39-.57-.76-.94-1.23-1.2,1.65-2.14,3.37-3.71,4.5s-3.06,2-4.6,3c6.95,3.37,8.82,10.14,7.63,14.59a12.69,12.69,0,0,1-10.62,9.45,12.4,12.4,0,0,1-11.16-4.53,12.64,12.64,0,0,1-2.53-5.48c-.88.26-.73.87-.87,1.3a12.75,12.75,0,0,1-23.51,2.31c-.29-.56-.55-1.12-.82-1.66-1,1.48-1.81,2.95-2.81,4.31a9.56,9.56,0,0,1-3.79,3c-1.55.69-3.18,1.17-4.87,1.78.21.37.66.3,1,.38a12.29,12.29,0,0,1,7.57,5.14,11.75,11.75,0,1,1-20.33,11.72,11.66,11.66,0,0,1,4.55-15.38,36.63,36.63,0,0,1,4.61-1.89,4.32,4.32,0,0,0-.8-.35,13.2,13.2,0,0,1-9.69-7.26,5,5,0,0,0-.61-.74,20.87,20.87,0,0,1-3.8,5.2,17.64,17.64,0,0,1-5.61,3.09c.23.69.82.78,1.3,1a11.1,11.1,0,0,1,4.12,2.93c3.25,3.78,4.16,8,2.24,12.68a11.36,11.36,0,0,1-10.68,7.48c-5.1.21-8.88-2.21-11.22-6.69a11.94,11.94,0,0,1,5.64-16.22c.57-.26,1.14-.54,1.88-.91a7.82,7.82,0,0,0-2.11-1c-.61-.35-1.28-.61-1.88-1a14.21,14.21,0,0,1-1.86-1.41,15.28,15.28,0,0,1-1.47-1.54c-.49-.59-.93-1.23-1.48-2-.83.61-1.1,1.55-1.7,2.19s-1.24,1.37-1.93,2a17,17,0,0,1-2.08,1.48c-.77.47-1.59.85-2.32,1.24,0,.6.37.71.67.86a12.05,12.05,0,0,1,6.84,10.11,11.42,11.42,0,0,1-2.78,8.7,12.26,12.26,0,0,1-21.52-5.55,12.18,12.18,0,0,1,5.9-12.87c.52-.31,1.23-.38,1.56-1.18-1-.53-2-1-2.92-1.6a15.91,15.91,0,0,1-2.48-2c-.81-.78-1.48-1.7-2.27-2.62a45.48,45.48,0,0,1-3.44,3.72,43.86,43.86,0,0,1-4.13,2.85c.39.3.73.61,1.12.86a12.28,12.28,0,0,1,5.4,7.13,11.85,11.85,0,0,1-3.71,12.75,12.36,12.36,0,0,1-19.79-4.6c-.31-.76-.59-1.54-.93-2.44a4.67,4.67,0,0,0-.93,2,12.36,12.36,0,0,1-10.62,8.34,12.58,12.58,0,0,1-12.43-6.55c-.37-.68-.7-1.39-1.13-2.27-.28.49-.51.81-.67,1.16A12.93,12.93,0,0,1,917,890.85a13,13,0,0,1-13.51-7.55c-.19-.45-.41-.88-.71-1.54a7.78,7.78,0,0,0-.61,1,13.25,13.25,0,0,1-9.06,8c-.4.12-.79.28-1.41.49l1.91.63a11.63,11.63,0,1,1-7.11-.05c.53-.18,1.08-.32,1.73-.52-1.55-.59-3-1.06-4.39-1.71a9.87,9.87,0,0,1-3.5-2.74c-1-1.19-1.81-2.49-2.72-3.76-3.88,6-4.78,6-9.8,8.23.8.35,1.51.64,2.21,1a11.72,11.72,0,1,1-9.89,0c.69-.33,1.39-.63,2.19-1-4.71-2.16-5.8-1.95-9.85-8.41-2.9,4.73-3.11,5.42-9.54,8.44.66.32,1.21.6,1.77.86a11.52,11.52,0,0,1,6.38,7.29,11.79,11.79,0,1,1-17-6.86c.8-.43,1.64-.79,2.67-1.29-1-.61-1.93-.79-2.74-1.27a19.66,19.66,0,0,1-2.67-1.73,13.91,13.91,0,0,1-2.06-2.14c-.62-.76-1.12-1.61-1.62-2.35-.49-.15-.62.16-.75.38a14.06,14.06,0,0,1-7.75,6.63c-.26.09-.5.23-1,.44.72.37,1.26.66,1.82.92a11.61,11.61,0,0,1,5.62,5.59,11.82,11.82,0,1,1-16.09-5.42,5.49,5.49,0,0,0,2.09-1.17,19.19,19.19,0,0,1-5.59-3.15,24.71,24.71,0,0,1-3.77-5,19.47,19.47,0,0,1-3.73,5.08,17.43,17.43,0,0,1-5.38,3c.22.86,1,.8,1.51,1a11.5,11.5,0,0,1,5.9,6.16,11.81,11.81,0,1,1-22.69,4.89c-.17-4.79,2.07-8.45,6.32-10.79.67-.37,1.38-.66,2.26-1.08a35.89,35.89,0,0,1-3.88-2,15.2,15.2,0,0,1-3-2.63,35.15,35.15,0,0,1-2.5-3.58c-.7.5-.82,1.39-1.31,2a23.52,23.52,0,0,1-1.58,2,13.84,13.84,0,0,1-1.91,1.68,17.78,17.78,0,0,1-2.19,1.3c-.73.38-1.51.68-2.5,1.12l1.88.93a11.51,11.51,0,0,1,6.7,9.46,11.8,11.8,0,1,1-23.52,1.88,11.26,11.26,0,0,1,6-11c.72-.42,1.5-.75,2.27-1.14-.07-.61-.61-.53-.92-.71s-.91-.4-1.36-.61a10.63,10.63,0,0,1-2.18-1.31q-.58-.47-1.14-1c-.31-.29-.61-.6-.9-.91a10.82,10.82,0,0,1-.8-1c-.29-.41-.53-.84-.8-1.26l-.77-1.15c-.76.54-1,1.38-1.5,2a17.33,17.33,0,0,1-1.5,1.79,16,16,0,0,1-2,1.63,14.63,14.63,0,0,1-2,1.17c-.76.36-1.56.65-2.36,1,.14.68.73.61,1.14.79a11.5,11.5,0,0,1,6,5.22,11.3,11.3,0,0,1-.27,11.94,11.06,11.06,0,0,1-10.59,5.51A11.64,11.64,0,0,1,728,900.52a11.38,11.38,0,0,1,6.29-8.14C735,892,735.68,891.75,736.61,891.34Zm410.23-75.51c2.82,2.61,4.12,1.79,7.16,9.77.34-1,.6-1.81,1-2.64a14.6,14.6,0,0,1,1.18-2.25,14.36,14.36,0,0,1,1.76-2.12,18,18,0,0,1,2-1.57c.71-.53,1.69-.65,2.28-1.37a41.72,41.72,0,0,1-4.5-3,40.23,40.23,0,0,1-3.58-4c-.65,1-1.21,1.93-1.92,2.78a17.49,17.49,0,0,1-2.41,2.38C1148.9,814.56,1147.91,815.12,1146.84,815.83Zm-730.09-.17a14.86,14.86,0,0,1,5.76,3.7,16.19,16.19,0,0,1,3,6,2.55,2.55,0,0,0,.2-.25c.09-.26.19-.53.27-.8a12.45,12.45,0,0,1,6.25-7.92,2.61,2.61,0,0,0,.52-.53,41.32,41.32,0,0,1-4.15-3.07,43.14,43.14,0,0,1-3.34-4C421.67,813.25,421.67,813.25,416.75,815.66Zm84,35.83c1.85-5.34,1.38-5.66,7.09-10.32a41.4,41.4,0,0,1-4.07-2.95,40,40,0,0,1-3.24-3.69,38.22,38.22,0,0,1-3.6,3.69,40.15,40.15,0,0,1-4.51,2.76,32.69,32.69,0,0,1,3,1.75,12.89,12.89,0,0,1,2.46,2.32,14.59,14.59,0,0,1,1.84,3.09A28.91,28.91,0,0,1,500.79,851.49Zm100.38,8.62c-.64.77-1.15,1.45-1.72,2.06a15,15,0,0,1-1.71,1.58c-.67.51-1.43.91-2.13,1.39s-1.56.55-2.24,1.3c.56.32,1,.52,1.39.8a30.39,30.39,0,0,1,2.89,2.14,11.14,11.14,0,0,1,3,4.8c.19.55.13,1.29.87,1.6a4.36,4.36,0,0,0,.27-.59,12.8,12.8,0,0,1,6.31-8.16c.2-.11.32-.37.49-.57a44.51,44.51,0,0,1-4-2.67A48.3,48.3,0,0,1,601.17,860.11Zm477.25-9.63c3.07-7.49,4.46-7,8-9.52a39.46,39.46,0,0,1-4.13-2.55,46.44,46.44,0,0,1-3.66-3.64c-.66.84-1.24,1.72-2,2.47a22.65,22.65,0,0,1-2.52,2.28c-.82.63-1.74,1.14-2.65,1.72C1074.64,843.82,1076,843.88,1078.42,850.48Zm-445.11,16.2a45,45,0,0,1-3.84-2.71,42.43,42.43,0,0,1-3.14-3.3,42.58,42.58,0,0,1-3.23,3.22c-1.19,1-2.55,1.71-3.93,2.61a3.94,3.94,0,0,0,.65.57,12.43,12.43,0,0,1,6.25,8.18,3.65,3.65,0,0,0,.52.88c.37-1.09.62-2,1-3a13.44,13.44,0,0,1,1.33-2.41,15.8,15.8,0,0,1,2-2.2C631.61,867.91,632.43,867.36,633.31,866.68Zm319.63-5.78a3.52,3.52,0,0,0-.61.53,16.41,16.41,0,0,1-5.61,4.8c-.2.1-.31.38-.47.58,4,3.09,4.44,3.72,6.23,8.46.07.19.19.37.43.83a16.73,16.73,0,0,1,2.5-5.59A19.77,19.77,0,0,1,960,866.6c-1.36-.89-2.66-1.6-3.8-2.52A43.64,43.64,0,0,1,952.94,860.9Zm-502.32-37c1.71-3.35,1.24-3.67,5.8-7.81-.8-.59-1.62-1.14-2.37-1.77s-1.32-1.28-2-1.91-1-1.64-1.89-2.25c-.28.32-.48.52-.64.74a15.13,15.13,0,0,1-5.18,4.32c-.28.14-.69.23-.62.7C447,818.35,447.65,818.18,450.62,823.94Zm200.74,50.44c.32-.35.52-.47.59-.64a13.45,13.45,0,0,1,5-6.41c.19-.13.29-.4.44-.61-1.15-.8-2.24-1.46-3.2-2.28s-1.89-1.83-2.71-2.64c-.73.64-1.35,1.21-2,1.75s-1.42,1.15-2.17,1.68-1.38.89-2.09,1.35c1.29,1.18,2.54,2.19,3.66,3.34A12.3,12.3,0,0,1,651.36,874.38ZM525.64,836.16c-.7.7-1.32,1.37-2,2s-1.32,1.05-2,1.57a17.82,17.82,0,0,0-2.36,1.54c.8.57,1.5,1,2.14,1.55a13.4,13.4,0,0,1,1.68,1.6,17.59,17.59,0,0,1,1.48,2.06c.42.69.77,1.43,1.22,2.29a41.61,41.61,0,0,1,2.54-4.07,38.47,38.47,0,0,1,3.33-3.3c-1.05-.76-2.17-1.46-3.17-2.32S526.64,837.18,525.64,836.16Zm609.8-20.37a16.77,16.77,0,0,1-6.22-5.2c-.69.84-1.24,1.56-1.85,2.22a21.91,21.91,0,0,1-1.84,1.77c-.69.58-1.43,1.11-2.15,1.66a41,41,0,0,1,3.08,3.34,39.65,39.65,0,0,1,2.24,3.83C1132.17,817.33,1132.62,818.15,1135.44,815.79Zm-207.5,46.1c-1,1-1.87,1.89-2.84,2.71s-2,1.47-3.05,2.21a41,41,0,0,1,3.34,3.41,36.77,36.77,0,0,1,2.34,3.84,39.4,39.4,0,0,1,2.67-4.15,38.33,38.33,0,0,1,3.53-3.29c-1.15-.76-2.26-1.4-3.25-2.18S928.83,862.73,927.94,861.89Zm119.89-20.42c.83.76,1.61,1.36,2.26,2.07a20.48,20.48,0,0,1,1.94,2.51c.52.78.91,1.66,1.43,2.64.44-.88.75-1.6,1.15-2.25a15.72,15.72,0,0,1,1.47-2.06c.5-.59,1.14-1.06,1.67-1.62s1.5-.73,1.85-1.51c-.19-.21-.27-.35-.38-.41a16.05,16.05,0,0,1-5-3.87,3.06,3.06,0,0,0-.73-.42A19.63,19.63,0,0,1,1047.83,841.47ZM676.66,874.4c.55-1.13.91-2,1.42-2.87A19.51,19.51,0,0,1,680,869c.64-.73,1.4-1.35,2.19-2.09-1.07-.79-2.07-1.44-3-2.22s-1.8-1.73-2.73-2.63c-1,.9-1.78,1.77-2.71,2.53s-2,1.45-3.06,2.19C675.26,870.83,674.38,870.35,676.66,874.4Zm231.81-7.56c-1.09-.76-2.1-1.4-3-2.15s-1.82-1.68-2.78-2.58c-.95.95-1.75,1.85-2.65,2.63s-1.87,1.43-2.84,2.15a38.33,38.33,0,0,1,3.14,3.32,41.67,41.67,0,0,1,2.42,4c.52-1,.93-2,1.48-2.9a15.35,15.35,0,0,1,1.83-2.34C906.77,868.27,907.59,867.62,908.47,866.84ZM545.29,841.37a36.53,36.53,0,0,1,3.09,3,42.72,42.72,0,0,1,2.57,3.74c.72-1.18,1.29-2.31,2-3.31s1.76-2,2.73-3.08c-.9-.71-1.8-1.37-2.64-2.11s-1.59-1.56-2.46-2.42c-.91.81-1.7,1.6-2.57,2.29S546.22,840.73,545.29,841.37Zm483.24-3.91-4.85,4.27c.66.66,1.29,1.23,1.84,1.87s1,1.35,1.55,2,.58,1.57,1.53,2.24a15.81,15.81,0,0,1,5.05-6.28C1031.91,840.19,1030.28,838.86,1028.53,837.46ZM721.58,867a15.41,15.41,0,0,1,5.14,6.5c.78-1.27,1.37-2.4,2.13-3.4s1.76-2,2.74-3.06c-.88-.69-1.68-1.36-2.54-2s-1.45-1.69-2.5-2.19c-.83.75-1.53,1.44-2.29,2.07S722.61,866.25,721.58,867Zm-19.87-4.28c-1,.85-1.73,1.59-2.55,2.26s-1.66,1.24-2.43,1.8c1,1,1.89,1.91,2.67,2.91s1.51,2.19,2.33,3.41c.74-1.12,1.34-2.23,2.12-3.21s1.83-1.95,2.85-3c-.89-.66-1.75-1.26-2.55-1.93S702.59,863.55,701.71,862.75Zm176,.22c-1.66,1.38-3.22,2.69-4.86,4.07.87.92,1.81,1.78,2.59,2.76s1.4,2.1,2.19,3.31c.69-.73.92-1.66,1.49-2.35l1.63-2c.56-.69,1.49-1,1.88-1.9Zm-25.31,10.46c.83-1.3,1.54-2.43,2.26-3.55s2-1.76,2.68-3c-.88-.65-1.69-1.21-2.45-1.84s-1.57-1.37-2.37-2.08c-.81.77-1.55,1.43-2.25,2.13s-1.79,1.09-2.48,2.07A16.53,16.53,0,0,1,852.38,873.43ZM777,873c.69-1.08,1.26-2.14,2-3.07s1.69-1.87,2.65-2.9c-.86-.67-1.65-1.25-2.39-1.88s-1.46-1.32-2.24-2c-.78.71-1.49,1.39-2.24,2s-1.53,1.21-2.4,1.88c.89,1,1.76,1.8,2.48,2.74S776.26,871.85,777,873Zm29.92-6-4.72-3.87c-.83.75-1.59,1.38-2.28,2.09s-1.71.93-2.21,1.84c.9,1,1.76,1.81,2.49,2.75s1.31,2,2.06,3.13c.7-1.08,1.28-2.12,2-3S806,868.08,806.93,867Zm-50.54,0-4.45-3.65-4.53,3.7c.63.63,1.19,1.15,1.7,1.72s1,1.2,1.47,1.81.67,1.37,1.43,1.9A20.31,20.31,0,0,1,756.39,867.08ZM470.61,816.23c.67.58,1.33,1.1,1.92,1.68s1,1.16,1.56,1.72.78,1.48,1.47,2l4-5.15c-.68-.59-1.37-1.28-2.15-1.86s-1.23-1.72-2.26-2Zm356.7,56.46,2.09-3c.67-1,1.76-1.58,2.38-2.69-.81-.61-1.52-1.18-2.26-1.7s-1.28-1.5-2.21-1.81l-4.38,3.61A19.4,19.4,0,0,1,827.31,872.69Zm276.58-51.22a16.89,16.89,0,0,1,4.38-5.16c-.82-.63-1.53-1.21-2.26-1.73s-1.21-1.37-2.15-1.75c-1.2,1.46-2.74,2.46-3.88,3.74ZM576.15,846.72l3.71-4.86-3.94-3.42-4,3.22Zm427.43-8.06c-1.27,1.11-2.44,2.11-3.66,3.17l3.46,4.41c.65-.85,1.23-1.63,1.83-2.39s1.58-1.33,2.07-2.28Zm-503-18.11,2.55-3.46a19.4,19.4,0,0,0-3.36-2.91c-.86.91-2,1.36-2.62,2.39Zm480.78,21.37a12.42,12.42,0,0,0-2.9-2.36c-.57.5-1.06.89-1.5,1.34s-1.14.62-1.2,1.4c.63.83,1.26,1.68,1.91,2.5a7,7,0,0,0,.74.67Zm97.84-27.66a15.8,15.8,0,0,0-2.86,2.86c.44.57.84,1.07,1.22,1.58s.72,1,1.17,1.6c.6-.72,1.1-1.29,1.57-1.9s1.25-1.09,1.68-1.94Zm-481,27.65,3,3.51a29.33,29.33,0,0,0,2.56-3.27c-1-.83-1.82-1.85-3-2.32Zm28.39-1.86a10.11,10.11,0,0,0-2.53,2.33c.81.78,1.32,1.76,2.28,2.56a17.58,17.58,0,0,0,2.29-3.13Zm326.21,4.62a9.34,9.34,0,0,0,2.21-2.57,8.27,8.27,0,0,0-2.34-1.91,5.2,5.2,0,0,0-2.07,1.8Zm-301.52-.74a8.5,8.5,0,0,0,2-2.51l-.9-.55-.92-.56-1.82,1.63Zm23.64-2.2a3.76,3.76,0,0,0,1.64,1.66,7.47,7.47,0,0,0,1.67-2l-1.52-1.22A5.25,5.25,0,0,0,675,841.73ZM526,815.44l-1.93,1.66c.53.61,1,1.11,1.46,1.65a4.67,4.67,0,0,0,1.84-2.22Zm401.65,24.81c-.53.45-.91.75-1.25,1.08-.09.08-.08.26-.16.55.54.48.87,1.27,1.65,1.71a3.31,3.31,0,0,0,1.5-1.85Zm-23.45,1.48a3.14,3.14,0,0,0-1.59-1.54,2.34,2.34,0,0,0-1.52,1.43l1.47,1.67C903.45,843,903.73,842.36,904.22,841.73ZM1055.08,817l-1.65-1.42a1.31,1.31,0,0,0-1.27,1.13c.49.51.79,1.26,1.61,1.64C1054.18,818,1054.55,817.56,1055.08,817Zm-505.42-.22,1,1.06,1.59-1.89-.83-.73A2.94,2.94,0,0,0,549.66,816.79ZM727.13,840c-.88.57-1.53.78-1.58,1.65l1,.9a2.1,2.1,0,0,0,1.34-1.73Zm-25.57,2.75c.74-.4,1.21-.77,1.33-1.54l-1.14-.91-1.28,1.19Zm152.2-1.5-1.27-1.12c-.54.3-1.06.51-1,1.36l1.16,1.06Zm25,.31c-1.14-1.42-1.23-1.43-2.2-.14l1.18,1.25Zm149.82-23.9c1-1.12,1-1.34.2-2-.54-.44-.72-.38-1.47.58ZM777.11,840.16c-.64.24-1.12.51-1.1,1.31l1.06.93c.39-.44.71-.78,1.11-1.22Zm24,1.05,1,1.09c1.17-.83,1.31-1.08.92-1.56C802.54,840.08,802.19,840.13,801.12,841.21Zm-49.15-1c-.35.44-.7.71-.74,1s.34.55.61.69.93-.33.86-.66S752.3,840.68,752,840.22ZM827.59,842a2.92,2.92,0,0,0,.52-.85c.08-.33-.56-.8-.87-.64a1.35,1.35,0,0,0-.6.73C826.54,841.58,827,842,827.59,842ZM576.47,815.41a1.53,1.53,0,0,0-.29.06c-.3.17-.56.38-.43.79a.18.18,0,0,0,.14.11c.42,0,.6-.25.67-.61C576.57,815.7,576.53,815.63,576.47,815.41Zm-176.63,12.1c0-5.78-4-11.48-11.7-11.9-6.29-.34-11.77,5.38-11.79,11.79a11.75,11.75,0,1,0,23.49.11Zm150.35,50.72a11.68,11.68,0,1,0-11.76,11.51A11.69,11.69,0,0,0,550.19,878.23ZM1141,841.13a11.61,11.61,0,0,0,0,23.21,11.61,11.61,0,1,0,0-23.21Zm-702.77.1a11.52,11.52,0,1,0,11.47,11.49A11.47,11.47,0,0,0,438.26,841.23Zm477,50.17a11.5,11.5,0,1,0,11.43,11.54A11.49,11.49,0,0,0,915.27,891.4Zm150.49-24.84a11.49,11.49,0,1,0,11.34,11.61A11.38,11.38,0,0,0,1065.76,866.56ZM652.62,903A11.45,11.45,0,1,0,664,891.44,11.31,11.31,0,0,0,652.62,903ZM513.79,866.63a11.42,11.42,0,1,0,11.29,11.49A11.26,11.26,0,0,0,513.79,866.63Zm691.32-39.17a11.38,11.38,0,1,0,11.39-11.38A11.22,11.22,0,0,0,1205.11,827.46ZM951.37,903a11.3,11.3,0,1,0-11.31,11.19A11.22,11.22,0,0,0,951.37,903Zm-300.87,0a11.26,11.26,0,1,0-11.37,11.09A11.26,11.26,0,0,0,650.5,903.05ZM362.72,816.27A11.21,11.21,0,1,0,374,827.4,11.09,11.09,0,0,0,362.72,816.27Zm803.69,25.3a11.17,11.17,0,1,0,11.17,11.28A11.13,11.13,0,0,0,1166.41,841.57Zm-811.64-29.9a12.13,12.13,0,0,0,16.26-.16c4.56-4.18,5.11-11.45,1.59-15.78-1.61-.23-16.7-.29-19.61-.08A12,12,0,0,0,354.77,811.67ZM976.52,903a11.13,11.13,0,1,0-11.23,11A11.13,11.13,0,0,0,976.52,903Zm114.55-36.1a11.12,11.12,0,1,0,11,11.21A11.15,11.15,0,0,0,1091.07,866.93ZM614,914a11.1,11.1,0,1,0-.08-22.2A11.1,11.1,0,0,0,614,914ZM424.5,852.74a11.1,11.1,0,0,0-22.2,0,11.1,11.1,0,0,0,22.2,0Zm63.84,36.36a11.05,11.05,0,1,0-11-11.14A11,11,0,0,0,488.34,889.1ZM990.53,892a10.79,10.79,0,0,0-10.82,10.86,10.95,10.95,0,1,0,21.89,0A10.82,10.82,0,0,0,990.53,892Zm-401.32,0a10.76,10.76,0,0,0-11,10.85,10.9,10.9,0,1,0,21.79,0A10.75,10.75,0,0,0,589.21,892Zm663-64.14a10.87,10.87,0,0,0-10.57-11.29,10.87,10.87,0,0,0-.64,21.74A10.94,10.94,0,0,0,1252.24,827.89Zm-18.92-16.75a11.7,11.7,0,0,0,15.89.17,11.56,11.56,0,0,0,1.5-15.59c-1.76-.24-16.91-.24-18.69,0C1228.93,799.09,1228.24,806.37,1233.32,811.14ZM1115.8,867.27a10.78,10.78,0,1,0,10.73,10.85A10.74,10.74,0,0,0,1115.8,867.27ZM330,811.06a11.62,11.62,0,0,0,16.15-.19c4.47-4.33,4.41-11.65.88-15.26H328.87A11.39,11.39,0,0,0,330,811.06Zm872,41.57a10.77,10.77,0,0,0-21.54.12,10.77,10.77,0,1,0,21.54-.12ZM338,816.74a10.75,10.75,0,1,0,10.7,10.65A10.78,10.78,0,0,0,338,816.74Zm125.52,50.6a10.71,10.71,0,1,0,10.7,10.7A10.65,10.65,0,0,0,463.51,867.34Zm552,24.92a10.64,10.64,0,0,0-10.7,10.45,10.76,10.76,0,0,0,10.55,10.87,10.64,10.64,0,0,0,10.77-10.6A10.53,10.53,0,0,0,1015.51,892.26ZM563.78,913.54a10.63,10.63,0,1,0-10.6-10.78A10.57,10.57,0,0,0,563.78,913.54Zm-165-60.75A10.66,10.66,0,1,0,388,863.39,10.62,10.62,0,0,0,398.75,852.79Zm857.89-45.12a10.7,10.7,0,0,0,10.17,6.12,11.18,11.18,0,0,0,9.53-16.83,2.53,2.53,0,0,0-2.55-1.44c-4.88.06-9.76,0-14.65,0-.35,0-.7,0-1.14.05A11,11,0,0,0,1256.64,807.67ZM1040.71,892.5a10.39,10.39,0,1,0,10.49,10.31A10.3,10.3,0,0,0,1040.71,892.5Zm100.41-24.83A10.38,10.38,0,1,0,1151.4,878,10.38,10.38,0,0,0,1141.12,867.67Zm115.19-40.26a10.32,10.32,0,1,0,20.64,0,10.32,10.32,0,0,0-20.64,0ZM304.88,810.46a11,11,0,0,0,16.21-14.84H304.25A10.75,10.75,0,0,0,304.88,810.46Zm223.32,92.3a10.32,10.32,0,1,0,10.39-10.16A10.31,10.31,0,0,0,528.2,902.76Zm-89.91-35a10.3,10.3,0,1,0,10.19,10.36A10.2,10.2,0,0,0,438.29,867.75Zm788.47-15A10.29,10.29,0,1,0,1216.45,863,10.25,10.25,0,0,0,1226.76,852.78ZM825.23,928.22a10.27,10.27,0,1,0-20.53-.1,10.27,10.27,0,0,0,20.53.1Zm-25.31,0a10.28,10.28,0,1,0-20.55-.18,10.28,10.28,0,0,0,20.55.18Zm50.14-.21a10.26,10.26,0,0,0-20.52.14,10.26,10.26,0,0,0,20.52-.14Zm-75.44.11a10.24,10.24,0,0,0-20.47-.08,10.24,10.24,0,1,0,20.47.08ZM312.85,817.26a10.23,10.23,0,1,0,10,10.3A10.19,10.19,0,0,0,312.85,817.26ZM739.57,917.94a10.27,10.27,0,0,0-10.27,10.27,10.19,10.19,0,1,0,10.27-10.27ZM362.93,842.56a10.19,10.19,0,1,0,10,10.27A10.17,10.17,0,0,0,362.93,842.56ZM865.09,918a10.19,10.19,0,1,0,10.16,10.17A10.22,10.22,0,0,0,865.09,918ZM724.36,928.25a10.16,10.16,0,1,0-10.23,10.06A10.11,10.11,0,0,0,724.36,928.25Zm341.18-35.48a10.13,10.13,0,1,0,10.21,10.08A10.22,10.22,0,0,0,1065.54,892.77ZM890.05,918.09A10.08,10.08,0,1,0,900,928.24,10.13,10.13,0,0,0,890.05,918.09ZM523.66,903a9.88,9.88,0,0,0-9.91-10.12,10,10,0,1,0-.18,20A9.89,9.89,0,0,0,523.66,903ZM689.4,918.14a10,10,0,1,0,10,10.06A10.09,10.09,0,0,0,689.4,918.14Zm591.91-112.46a10.13,10.13,0,0,0,8.5,7.38,10,10,0,0,0,10.59-4.74c2.38-3.74,2.26-7.62,0-11.45a2.44,2.44,0,0,0-2.4-1.35c-4.46.06-8.92,0-13.38,0-.35,0-.7,0-1.2.07C1281,798.72,1280.12,802,1281.31,805.68ZM915.41,918.21a10.05,10.05,0,0,0-10.13,9.88,9.93,9.93,0,0,0,19.86.17A10,10,0,0,0,915.41,918.21ZM277.51,804.64a10.52,10.52,0,1,0,19.18-7.71,2.62,2.62,0,0,0-2.59-1.41c-4.25.06-8.51,0-12.76,0-.42,0-.84,0-1.42.07A10.45,10.45,0,0,0,277.51,804.64Zm888.87,63.48a9.93,9.93,0,1,0,9.93,9.84A9.91,9.91,0,0,0,1166.38,868.12Zm-512.19,60a9.88,9.88,0,1,0,9.93-9.81A9.85,9.85,0,0,0,654.19,928.08ZM413.4,868.22a9.83,9.83,0,1,0,9.84,9.89A9.8,9.8,0,0,0,413.4,868.22Zm516.86,59.83a9.79,9.79,0,1,0,9.87-9.7A9.93,9.93,0,0,0,930.26,928.05Zm-281.27,0a9.77,9.77,0,1,0-9.67,9.82A9.74,9.74,0,0,0,649,928.09ZM1291.4,817.73a9.75,9.75,0,1,0,9.82,9.65A9.8,9.8,0,0,0,1291.4,817.73ZM1241.28,843a9.75,9.75,0,1,0,9.81,9.7A9.78,9.78,0,0,0,1241.28,843ZM1090.9,893.14a9.77,9.77,0,0,0,0,19.53,9.77,9.77,0,0,0,0-19.53Zm-602.45.09a9.55,9.55,0,0,0-9.74,9.69,9.68,9.68,0,1,0,19.35,0A9.62,9.62,0,0,0,488.45,893.23Zm-191-65.64a9.63,9.63,0,0,0-19.25-.36,9.63,9.63,0,1,0,19.25.36Zm40.64,15.52a9.64,9.64,0,1,0,9.5,9.7A9.66,9.66,0,0,0,338.07,843.11Zm617.7,85a9.59,9.59,0,1,0,9.69-9.56A9.63,9.63,0,0,0,955.77,928.14Zm-332.29.2a9.54,9.54,0,1,0-9.6,9.39A9.58,9.58,0,0,0,623.48,928.34Zm700.21-132.72q-6.59,0-13.18-.08a1.86,1.86,0,0,0-1.6.87,10,10,0,1,0,17,10.23c1.53-3.15,1.07-8.19-2.06-10.95C1323.82,795.67,1323.76,795.62,1323.69,795.62Zm-132.41,73a9.48,9.48,0,1,0,9.41,9.49A9.45,9.45,0,0,0,1191.28,868.57Zm-931.6-56.49a9.9,9.9,0,0,0,10.87-15.27,2.71,2.71,0,0,0-2.47-1.29c-3.76.07-7.51,0-11.27,0-.42,0-.84.06-1.24.09A9.87,9.87,0,0,0,259.68,812.08Zm865.47,90.86a9.37,9.37,0,1,0-9.36,9.35A9.42,9.42,0,0,0,1125.15,902.94ZM990.73,918.85a9.33,9.33,0,1,0-.16,18.66,9.33,9.33,0,0,0,.16-18.66ZM397.44,878.14a9.33,9.33,0,1,0-9.39,9.24A9.28,9.28,0,0,0,397.44,878.14Zm66,15.47a9.3,9.3,0,1,0,9.35,9.24A9.26,9.26,0,0,0,463.42,893.61Zm135,34.55a9.28,9.28,0,1,0-9.32,9.32A9.32,9.32,0,0,0,598.38,928.16Zm659.05-75.65a9.21,9.21,0,1,0,9.4-9A9.22,9.22,0,0,0,1257.43,852.51Zm68.45-25a9.1,9.1,0,0,0-9.13-9.21,9.13,9.13,0,0,0,0,18.26A9.12,9.12,0,0,0,1325.88,827.54ZM1006.41,928.16a9.08,9.08,0,1,0,9.11-9A9.1,9.1,0,0,0,1006.41,928.16Zm-433.6,0a9,9,0,0,0-8.87-9,9.17,9.17,0,0,0-9.18,9,9,9,0,0,0,9,9.09A8.91,8.91,0,0,0,572.81,928.16ZM321.68,852.64a9,9,0,1,0-9,9.13A9,9,0,0,0,321.68,852.64Zm1020.48-57.09c-1.77,0-3.54,0-5.32,0a2.06,2.06,0,0,0-1.68.73A9,9,0,0,0,1333,805a9.13,9.13,0,0,0,9.92,6.92,8.71,8.71,0,0,0,7.8-5.72,9.06,9.06,0,0,0-1.61-9.75,2.38,2.38,0,0,0-2-.88c-1.63,0-3.27,0-4.9,0Zm-125.7,73.52a9,9,0,1,0,.07,17.95,9,9,0,0,0-.07-17.95Zm-84.33,33.67a8.94,8.94,0,1,0,9-8.77A8.92,8.92,0,0,0,1132.13,902.74ZM262.59,836.43a9,9,0,0,0,8.87-9,8.91,8.91,0,0,0-9-8.87,8.8,8.8,0,0,0-8.83,9A8.9,8.9,0,0,0,262.59,836.43ZM246,806.5a9,9,0,0,0-1.36-9.94,2.53,2.53,0,0,0-2.19-1c-3.11.05-6.23.08-9.35,0a3,3,0,0,0-2.69,1.34,9.27,9.27,0,0,0,7.1,15C241.42,811.72,244.38,810.06,246,806.5Zm183.33,96.32a8.87,8.87,0,1,0,8.83-8.8A8.93,8.93,0,0,0,429.36,902.82ZM363,869.21a8.83,8.83,0,1,0,8.68,9.12A8.86,8.86,0,0,0,363,869.21Zm686.6,58.95a8.85,8.85,0,0,0-8.65-8.76,8.78,8.78,0,1,0,8.65,8.76Zm-511.16,8.75a8.73,8.73,0,1,0-8.64-8.7A8.74,8.74,0,0,0,538.42,936.91Zm761.63-84.21a8.57,8.57,0,1,0-8.61,8.6A8.53,8.53,0,0,0,1300.05,852.7ZM781.13,953a8.51,8.51,0,0,0,17,.17,8.51,8.51,0,1,0-17-.17Zm-16.71,8.5a8.47,8.47,0,1,0,0-16.93,8.47,8.47,0,1,0,0,16.93ZM1157.91,903a8.46,8.46,0,1,0,8.44-8.56A8.44,8.44,0,0,0,1157.91,903Zm-83.81,25.36a8.48,8.48,0,1,0-8.49,8.3A8.53,8.53,0,0,0,1074.1,928.32Zm300.83-122.43a8.71,8.71,0,0,0-2-9.57,2.51,2.51,0,0,0-1.88-.78c-2.69,0-5.38,0-8.07,0a2.77,2.77,0,0,0-2.07.88,8.67,8.67,0,1,0,14.07,9.48Zm-543.58,147a8.45,8.45,0,1,0,8.48-8.26A8.4,8.4,0,0,0,831.35,952.88Zm-24.86.27a8.46,8.46,0,1,0,8.39-8.56A8.4,8.4,0,0,0,806.49,953.15ZM296.25,852.81a8.44,8.44,0,1,0-8.44,8.35A8.47,8.47,0,0,0,296.25,852.81Zm1054.24-25.23a8.37,8.37,0,0,0-8.24-8.52,8.4,8.4,0,1,0,8.24,8.52ZM731.08,953a8.42,8.42,0,1,0,16.84.08,8.42,8.42,0,0,0-16.84-.08Zm134.08-8.34a8.38,8.38,0,1,0,8.31,8.45A8.34,8.34,0,0,0,865.16,944.65ZM413.63,894.53a8.19,8.19,0,0,0-8.59,8,8.33,8.33,0,0,0,8,8.79,8.5,8.5,0,0,0,8.74-8.08A8.37,8.37,0,0,0,413.63,894.53Zm300.45,50.15a8.27,8.27,0,0,0-8.23,8.33,8.18,8.18,0,0,0,8.41,8.35,8.3,8.3,0,0,0,8.35-8.42A8.42,8.42,0,0,0,714.08,944.68Zm535.64-66.48a8.39,8.39,0,1,0-8.54,8.2A8.3,8.3,0,0,0,1249.72,878.2ZM522,928.2a8.35,8.35,0,0,0-16.7-.13,8.35,8.35,0,1,0,16.7.13ZM218.12,796.36a2.58,2.58,0,0,0-1.89-.82q-3.82,0-7.65,0a2.66,2.66,0,0,0-1.91.78,8.41,8.41,0,0,0-2.7,4.95,8.52,8.52,0,0,0,7.54,9.78c5.48.5,9.5-3.93,9.39-7.87A8.75,8.75,0,0,0,218.12,796.36ZM890,944.77a8.25,8.25,0,0,0-.21,16.5,8.25,8.25,0,1,0,.21-16.5Zm-552.18-75a8.25,8.25,0,1,0,8.35,8.15A8.26,8.26,0,0,0,337.85,869.79ZM246,827.49a8.26,8.26,0,0,0-8.23-8.29,8.26,8.26,0,0,0-.08,16.51A8.29,8.29,0,0,0,246,827.49ZM689.41,961.2a8.07,8.07,0,0,0,8.17-8.06,8.21,8.21,0,1,0-16.41-.12A8,8,0,0,0,689.41,961.2Zm225.8-16.26a8.07,8.07,0,1,0,8.13,8.08A8,8,0,0,0,915.21,944.94ZM1099,928.09a8,8,0,1,0-8,8.15A8,8,0,0,0,1099,928.09ZM656.05,953a8,8,0,0,0,16.07.11,8,8,0,0,0-16.07-.11Zm535.21-42.09a8,8,0,1,0-8-7.93A8,8,0,0,0,1191.26,910.88ZM480.38,928.23a8,8,0,1,0,7.95-8A8,8,0,0,0,480.38,928.23Zm467.6,25a7.91,7.91,0,1,0-8,7.73A7.83,7.83,0,0,0,948,953.19ZM647.11,953a7.89,7.89,0,1,0-7.8,7.88A7.78,7.78,0,0,0,647.11,953Zm669.7-108.13a7.89,7.89,0,1,0,7.81,7.87A7.87,7.87,0,0,0,1316.81,844.87ZM388,895.07a7.82,7.82,0,1,0,7.94,7.75A7.81,7.81,0,0,0,388,895.07Zm878.68-24.8a7.77,7.77,0,1,0,7.74,7.69A7.79,7.79,0,0,0,1266.66,870.27ZM1390,795.53a3.58,3.58,0,0,0-2.72,1,7.64,7.64,0,0,0-2.64,8.22,7.86,7.86,0,1,0,12.54-8.2,3.73,3.73,0,0,0-2.71-1c-.78.06-1.56,0-2.34,0S1390.69,795.59,1390,795.53ZM270.22,852.84a7.69,7.69,0,1,0-15.38-.17,7.69,7.69,0,1,0,15.38.17ZM957.67,953a7.7,7.7,0,1,0,7.7-7.68A7.62,7.62,0,0,0,957.67,953ZM1366.9,819.81a7.61,7.61,0,0,0-7.64,7.72,7.65,7.65,0,0,0,15.29,0A7.56,7.56,0,0,0,1366.9,819.81ZM606.32,953.13a7.63,7.63,0,1,0,7.62-7.72A7.49,7.49,0,0,0,606.32,953.13Zm517.07-24.88a7.6,7.6,0,1,0-15.2,0,7.46,7.46,0,0,0,7.57,7.54A7.55,7.55,0,0,0,1123.39,928.25ZM312.73,870.46a7.58,7.58,0,1,0,7.52,7.6A7.53,7.53,0,0,0,312.73,870.46ZM185.67,795.53a4.68,4.68,0,0,0-4,1.63,7.71,7.71,0,0,0-1.59,8.62,7.29,7.29,0,0,0,7.12,4.44,7.05,7.05,0,0,0,6.83-4.51,7.43,7.43,0,0,0-1.35-8.3,4.72,4.72,0,0,0-4.28-1.87,10.76,10.76,0,0,1-1.27,0A10.58,10.58,0,0,1,185.67,795.53Zm278,125.15a7.51,7.51,0,1,0,7.31,7.59A7.48,7.48,0,0,0,463.71,920.68Zm534.44,32.41a7.49,7.49,0,1,0-7.5,7.39A7.54,7.54,0,0,0,998.15,953.09ZM204.9,827.41a7.48,7.48,0,1,0,14.95,0,7.48,7.48,0,0,0-14.95,0ZM589,960.44a7.41,7.41,0,1,0-7.3-7.57A7.44,7.44,0,0,0,589,960.44Zm634.91-57.67a7.4,7.4,0,1,0-7.33,7.51A7.26,7.26,0,0,0,1223.9,902.77Zm-868.36.16a7.25,7.25,0,0,0,14.49,0,7.25,7.25,0,1,0-14.49,0Zm785.7,18.12a7.13,7.13,0,1,0,7,7.36A7.15,7.15,0,0,0,1141.24,921.05ZM1022.6,953a7.09,7.09,0,1,0-7.13,7.13A7,7,0,0,0,1022.6,953ZM1335,852.65a7.12,7.12,0,1,0,14.23,0,7.12,7.12,0,0,0-14.23,0Zm-764,100.4a7.15,7.15,0,0,0-7.19-7.1,7.08,7.08,0,1,0,.16,14.15A7.15,7.15,0,0,0,570.91,953.05Zm727.68-74.86a7.06,7.06,0,0,0-7.11-7.2,7.05,7.05,0,0,0-.08,14.1A7.06,7.06,0,0,0,1298.59,878.19Zm118.53-82.6a7,7,0,1,0-.12,14,7,7,0,1,0,.12-14ZM438.32,921.18a7,7,0,0,0-7.12,6.93,7.06,7.06,0,1,0,7.12-6.93ZM287.84,885a6.91,6.91,0,1,0-6.94-6.88A6.9,6.9,0,0,0,287.84,885Zm-50.18-39.1a6.91,6.91,0,0,0,0,13.81,6.91,6.91,0,1,0,0-13.81Zm1147.77-18.43a6.78,6.78,0,1,0,6.75-6.73A6.73,6.73,0,0,0,1385.43,827.42ZM1047.56,953.06a6.78,6.78,0,1,0-6.77,6.72A6.74,6.74,0,0,0,1047.56,953.06ZM162.21,795.84a6.77,6.77,0,1,0,6.8,6.68A6.73,6.73,0,0,0,162.21,795.84ZM1241.38,896.16a6.64,6.64,0,0,0-6.74,6.74,6.71,6.71,0,1,0,13.42.08A6.67,6.67,0,0,0,1241.38,896.16ZM531.86,953a6.66,6.66,0,0,0,13.31.24,6.66,6.66,0,1,0-13.31-.24ZM331.35,902.94a6.64,6.64,0,0,0,6.55,6.51,6.55,6.55,0,0,0,6.61-6.42,6.58,6.58,0,1,0-13.16-.09Zm828.45,25.11a6.56,6.56,0,1,0,13.11.08,6.56,6.56,0,0,0-13.11-.08ZM193.65,827.6A6.57,6.57,0,1,0,187,834,6.55,6.55,0,0,0,193.65,827.6Zm219.92,94.16a6.43,6.43,0,1,0,6.25,6.52A6.38,6.38,0,0,0,413.57,921.76Zm645.7,31.13a6.37,6.37,0,1,0,6.45-6.2A6.3,6.3,0,0,0,1059.27,952.89Zm313.9-100.16A6.25,6.25,0,1,0,1367,859,6.28,6.28,0,0,0,1373.17,852.73ZM519.93,953.11a6.25,6.25,0,1,0-6.29,6.14A6.2,6.2,0,0,0,519.93,953.11Zm796.92-81.31a6.24,6.24,0,1,0,6.14,6.27A6.18,6.18,0,0,0,1316.85,871.8ZM764.38,972.12a6.2,6.2,0,1,0,6.14,6.29A6.24,6.24,0,0,0,764.38,972.12Zm56.74,6.09a6.18,6.18,0,1,0-6.13,6.31A6.2,6.2,0,0,0,821.12,978.21Zm-31.48-6.09a6.2,6.2,0,0,0-.06,12.4,6.2,6.2,0,1,0,.06-12.4Zm50.26.08a6.13,6.13,0,1,0-.13,12.26,6.23,6.23,0,0,0,6.16-6.08A6.14,6.14,0,0,0,839.9,972.2Zm-106.53,5.9a6.14,6.14,0,1,0,6.31-5.9A6.19,6.19,0,0,0,733.37,978.1Zm-470.76-94a6.07,6.07,0,1,0-6.17-6A6.07,6.07,0,0,0,262.61,884.11Zm596.43,94a6,6,0,0,0,5.72,6.24,6.07,6.07,0,1,0,.55-12.12A6,6,0,0,0,859,978.15Zm577.3-175.59a6,6,0,1,0,12-.1,6,6,0,0,0-12,.1ZM714.18,972.34a6,6,0,1,0,6,6A6,6,0,0,0,714.18,972.34ZM212.68,846.77a6,6,0,1,0,5.68,6.24A6,6,0,0,0,212.68,846.77Zm1048,56.17a6,6,0,1,0,6-6.05A6,6,0,0,0,1260.63,902.94Zm-63.52,25.22a5.91,5.91,0,1,0-5.93,5.94A5.83,5.83,0,0,0,1197.11,928.16Zm-106.23,19a5.91,5.91,0,1,0,5.94,5.9A5.83,5.83,0,0,0,1090.88,947.13Zm-407.36,31a5.83,5.83,0,1,0,11.66.17,5.83,5.83,0,0,0-11.66-.17ZM890,972.45a5.83,5.83,0,0,0-5.89,5.93,5.84,5.84,0,1,0,11.67-.12A5.8,5.8,0,0,0,890,972.45Zm532.9-144.78a5.81,5.81,0,0,0-11.62-.44,5.81,5.81,0,0,0,11.62.44ZM388.14,922.4a5.8,5.8,0,1,0,5.74,5.84A5.78,5.78,0,0,0,388.14,922.4Zm-81.23-19.52a5.67,5.67,0,0,0,5.76,5.78,5.73,5.73,0,0,0,5.78-5.78,5.84,5.84,0,0,0-5.78-5.83A5.78,5.78,0,0,0,306.91,902.88Zm181.51,44.36a5.79,5.79,0,1,0-.12,11.57,5.79,5.79,0,0,0,.12-11.57ZM137.21,796.89a5.74,5.74,0,1,0,5.43,5.89A5.66,5.66,0,0,0,137.21,796.89ZM909.45,978.51a5.82,5.82,0,0,0,5.85,5.55,5.75,5.75,0,0,0,5.65-5.94,5.75,5.75,0,1,0-11.5.39ZM664,984a5.67,5.67,0,1,0-5.57-5.76A5.73,5.73,0,0,0,664,984ZM167.83,827.48a5.59,5.59,0,1,0-5.55,5.56A5.58,5.58,0,0,0,167.83,827.48ZM940,972.8a5.52,5.52,0,0,0,0,11,5.52,5.52,0,1,0,0-11ZM1121.17,953a5.32,5.32,0,0,0-5.36-5.42,5.42,5.42,0,1,0,0,10.83A5.25,5.25,0,0,0,1121.17,953ZM644.59,978.2a5.42,5.42,0,0,0-5.31-5.29,5.49,5.49,0,0,0-5.44,5.4,5.34,5.34,0,0,0,5.45,5.33A5.25,5.25,0,0,0,644.59,978.2Zm326,.22a5.35,5.35,0,0,0-5.13-5.44,5.45,5.45,0,0,0-5.5,5.33,5.32,5.32,0,0,0,5.29,5.27A5.21,5.21,0,0,0,970.64,978.42Zm371.53-105.69a5.31,5.31,0,1,0-.1,10.62,5.31,5.31,0,0,0,.1-10.62Zm-883.9,80.39a5.24,5.24,0,0,0,10.48-.08,5.26,5.26,0,0,0-5.27-5.28A5.32,5.32,0,0,0,458.27,953.12Zm758.31-19.68a5.24,5.24,0,1,0-5.31-5.22A5.22,5.22,0,0,0,1216.58,933.44ZM237.79,872.87a5.18,5.18,0,1,0-.11,10.35,5.18,5.18,0,0,0,.11-10.35ZM1286.34,903a5.15,5.15,0,1,0,5.09-5.2A5.11,5.11,0,0,0,1286.34,903Zm111-50.21a5.17,5.17,0,1,0-5.1,5.17A5.22,5.22,0,0,0,1397.37,852.74ZM187.08,847.67a5.08,5.08,0,1,0,5.06,5A5,5,0,0,0,187.08,847.67ZM614,973.26a5.06,5.06,0,1,0,5,5A5,5,0,0,0,614,973.26Zm376.67,0a5.06,5.06,0,1,0,5,5A5.07,5.07,0,0,0,990.67,973.26ZM367.78,928.19a5,5,0,1,0-5,5A5,5,0,0,0,367.78,928.19ZM1146,953.09a4.91,4.91,0,0,0-5-5,4.91,4.91,0,0,0,.1,9.81A4.92,4.92,0,0,0,1146,953.09ZM283,902.9a4.72,4.72,0,0,0,4.84,4.85,4.83,4.83,0,0,0,4.94-5,5,5,0,0,0-5-4.79A4.85,4.85,0,0,0,283,902.9ZM1467.33,797.84a4.79,4.79,0,1,0-.17,9.57,4.79,4.79,0,0,0,.17-9.57ZM588.92,973.67a4.69,4.69,0,0,0-4.51,4.72,4.74,4.74,0,0,0,4.64,4.61,4.68,4.68,0,0,0,4.7-4.74A4.61,4.61,0,0,0,588.92,973.67Zm652.42-50.06a4.6,4.6,0,0,0-4.59,4.58,4.66,4.66,0,0,0,4.59,4.58,4.58,4.58,0,0,0,0-9.16Zm201-100.73a4.53,4.53,0,0,0-4.57,4.57,4.57,4.57,0,1,0,4.57-4.57ZM442.76,953.08a4.52,4.52,0,0,0-4.62-4.54,4.49,4.49,0,0,0,.1,9A4.53,4.53,0,0,0,442.76,953.08ZM1020,976.44a4.72,4.72,0,0,0-2.27-2.43,4.89,4.89,0,0,0-6,1.29,4.46,4.46,0,0,0,.16,6c2.66-.6,5.44-.49,8.13-1.38C1020.48,978.12,1020.46,977.62,1020,976.44Zm296.82-77.78a4.24,4.24,0,1,0,.11,8.47,4.24,4.24,0,0,0-.11-8.47ZM563.88,974.09a4.23,4.23,0,1,0,4.15,4.24A4.26,4.26,0,0,0,563.88,974.09Zm807.25-96a4.22,4.22,0,1,0-8.44.07,4.22,4.22,0,0,0,8.44-.07Zm-1033,46a4,4,0,0,0-4.3,4,4.16,4.16,0,0,0,3.95,4.2,4.08,4.08,0,0,0,4.28-4.07A4,4,0,0,0,338.12,924.09Zm-71.66-21.22a3.89,3.89,0,0,0-3.91-3.89,4,4,0,0,0-4,4,4.06,4.06,0,0,0,4.06,3.81A4,4,0,0,0,266.46,902.87Zm1150.72-54a3.94,3.94,0,1,0-.14,7.88,3.94,3.94,0,0,0,.14-7.88ZM213.62,881.55a1.21,1.21,0,0,0,1.56-.21,4.18,4.18,0,0,0,1.36-4.4,4.1,4.1,0,0,0-3.36-3.14,4,4,0,0,0-4.13,1.54,12.64,12.64,0,0,0-1.09,2.18A49.57,49.57,0,0,0,213.62,881.55ZM417.09,953a3.72,3.72,0,1,0-3.76,3.71A3.66,3.66,0,0,0,417.09,953Zm121.52,21.58a3.72,3.72,0,1,0,3.61,3.71A3.7,3.7,0,0,0,538.61,974.61Zm625.52-20.87a37.16,37.16,0,0,1,5.31-1.23c.43,0,.83-.45,1.23-.68-1.18-2.69-3.21-3.83-5.55-3.15a4.45,4.45,0,0,0-2.63,2,3.39,3.39,0,0,0-.45,3A3.25,3.25,0,0,0,1164.13,953.74ZM315.82,928a3.13,3.13,0,0,0-3.19-3,3.09,3.09,0,0,0-3.11,3.29,3.12,3.12,0,0,0,3.17,3A3.16,3.16,0,0,0,315.82,928ZM1492.69,799.45a3.08,3.08,0,0,0-3.33,3.07,3.13,3.13,0,0,0,2.93,3.28,3.27,3.27,0,0,0,3.38-3.09A3.21,3.21,0,0,0,1492.69,799.45Zm-25.37,24.87a3.14,3.14,0,1,0,0,6.27,3.06,3.06,0,0,0,3.06-3.11A3.1,3.1,0,0,0,1467.32,824.32ZM513.87,975.2a3.13,3.13,0,0,0-.42,6.25,3.13,3.13,0,1,0,.42-6.25ZM388.15,950.11a2.92,2.92,0,0,0-.22,5.83,2.92,2.92,0,1,0,.22-5.83Zm354.32,53.79a1.88,1.88,0,0,0,.11-.62,3.09,3.09,0,0,0-3.25-3.15,3.15,3.15,0,0,0-2.9,3.3c.09.94.53,1.42,1.46,1.45,1.34,0,2.68,0,4.13,0C742.24,1004.41,742.38,1004.16,742.47,1003.9Zm-28.15,1.51H715a1.84,1.84,0,0,0,1.93-1.59,2.7,2.7,0,0,0-1-2.84,2.86,2.86,0,0,0-3-.25,2.58,2.58,0,0,0-1.39,2.45c0,1.39.74,2.42,2.18,2.24a4.42,4.42,0,0,1,.63,0Zm51.75-4.9a3.14,3.14,0,0,0-3.74.26,4.26,4.26,0,0,0-1,1.57,1.84,1.84,0,0,0,.39,2.09,28.23,28.23,0,0,0,5.5-.15C767.63,1002.36,767.28,1001.28,766.07,1000.51Zm-277.59-24.8a2.6,2.6,0,0,0-2.71,2.62,2.55,2.55,0,0,0,2.5,2.59,2.58,2.58,0,0,0,2.72-2.6A2.61,2.61,0,0,0,488.48,975.71Zm549,1.74a8.92,8.92,0,0,0,1-.2c.41-.08.81-.19,1.23-.24,1.39-.17,2.79-.31,4.18-.49a.68.68,0,0,0,.36-1.14,4.53,4.53,0,0,0-7.75,1.37,1.93,1.93,0,0,0,.08.63A4.55,4.55,0,0,0,1037.48,977.45Zm-244.65,25.79a2.6,2.6,0,0,0-.93-2.45,3,3,0,0,0-2.31-.87,3.08,3.08,0,0,0-2.29,1,2.57,2.57,0,0,0-.78,2.46A17.07,17.07,0,0,0,792.83,1003.24Zm-103.51,1.64c.42,0,.84,0,1.26,0a1.31,1.31,0,0,0,1.39-1.26,2.56,2.56,0,0,0-1.24-2.69,2.35,2.35,0,0,0-2.59-.07,2.52,2.52,0,0,0-1.36,2.63c.09.94.5,1.33,1.49,1.39.35,0,.7,0,1.05,0Zm-24-3.68a2.22,2.22,0,0,0-2.73.28,3.08,3.08,0,0,0-.72,1.25,1.41,1.41,0,0,0,.44,1.6,10.57,10.57,0,0,0,3.8,0C666.5,1002.59,666.29,1001.85,665.28,1001.2ZM1269,925.77c.08,0,.1-.23.2-.5a3.65,3.65,0,0,0-3.65-.86,3.61,3.61,0,0,0-2.75,3.08A23.15,23.15,0,0,0,1269,925.77Zm-451.13,76.16a3,3,0,0,0-3.11-2.18,3.33,3.33,0,0,0-2.1.87c-.41.36-.87.73-.7,1.39A15.3,15.3,0,0,0,817.91,1001.93ZM463.64,976.42a1.91,1.91,0,1,0-.23,3.82,1.91,1.91,0,0,0,2-1.91A1.88,1.88,0,0,0,463.64,976.42Zm929.28-101.57a3.28,3.28,0,0,0-2.44.39,2.41,2.41,0,0,0-1.11,3.21,35.4,35.4,0,0,0,5-2.47C1394.15,875.14,1393.53,875,1392.92,874.85ZM364.6,952.49a1.87,1.87,0,0,0-3.2-.79.61.61,0,0,0,.12,1c1,.29,1.84,1.07,3.1.71A3.15,3.15,0,0,0,364.6,952.49ZM641.16,1003a1.34,1.34,0,0,0-.73-1.52,2.53,2.53,0,0,0-1.36-.42,2.65,2.65,0,0,0-1.29.61,1.1,1.1,0,0,0-.43,1.36A11.33,11.33,0,0,0,641.16,1003Zm196.32-2.08a15.33,15.33,0,0,1,1.75-.38c.62-.06,1.25,0,2.38,0C839.76,999.29,838.79,999.43,837.48,1000.9Zm502.78-100.39c.5-.08,1-.14,1.26-.74C1340.46,899.85,1340.46,899.85,1340.26,900.51Zm-726.13,101s-.12-.09-.16-.08a1.14,1.14,0,0,0-.3.13l.17.09Z"/><rect class="cls-7" x="59.46" y="785.35" width="1492.33" height="14.82" rx="0.22"/><rect class="cls-17" x="832.45" y="67.47" width="175.11" height="72.16" rx="1.08"/><path class="cls-17" d="M853.6,128.75v39.81l45.87-45.88S854.53,128.75,853.6,128.75Z"/><rect class="cls-18" x="841.51" y="74.63" width="157" height="57.85" rx="0.86"/><path class="cls-17" d="M927,88.93H856.09a3.11,3.11,0,0,1,0-6.22H927a3.11,3.11,0,1,1,0,6.22Z"/><rect class="cls-17" x="852.98" y="97.33" width="134.99" height="3.49" rx="0.05"/><rect class="cls-17" x="852.98" y="104.1" width="134.99" height="3.49" rx="0.05"/><rect class="cls-17" x="953.09" y="123.15" width="7.6" height="6.84" rx="0.1"/><rect class="cls-17" x="966.92" y="123.15" width="7.6" height="6.84" rx="0.1"/><rect class="cls-17" x="980.74" y="123.15" width="7.6" height="6.84" rx="0.1"/><path class="cls-6" d="M631.15,786.25h-271a17.39,17.39,0,0,1,17.39-17.39h253.6Z"/><path class="cls-6" d="M631.48,786.25H486.73L548.2,651a11.06,11.06,0,0,1,10.06-6.48H689.19a4.32,4.32,0,0,1,3.93,6.1Z"/><path class="cls-13" d="M689.19,644.54H569.67A11,11,0,0,0,559.61,651L498.14,786.25H631.48l61.64-135.61A4.32,4.32,0,0,0,689.19,644.54Z"/><path class="cls-6" d="M620.64,719.83c-5.07,10.5-13.29,17-18.36,14.58s-5.09-12.95,0-23.45,13.29-17,18.36-14.58S625.7,709.33,620.64,719.83Z"/><path class="cls-8" d="M344.13,447.44s-12.3,62.78-25.89,73.79,31.28,64,46.81,50.46,1.09-43.34,1.09-43.34-8.42-5.18,5.82-38.19-24.09-57.6-24.09-57.6Z"/><path class="cls-9" d="M347.87,432.56l-3.74,14.88s-1.71,8.74-4.56,20.26c5.31,24.79,15.24,40.91,24.13,51.16.26-5.71,2.22-14.7,8.26-28.7C386.2,457.15,347.87,432.56,347.87,432.56Z"/><path class="cls-8" d="M421.89,471.34c-8.26,22.79-28.46,41.09-41.28,36.86-20.95-6.89-36.2-23.26-32.6-59.46,4.25-42.63,37.05-47.52,56.31-42.07S431,446.12,421.89,471.34Z"/><path class="cls-7" d="M315.71,521.13l-19.81,7.76,31.23,40-8.91,16s32.16,24.15,41.94,70.94a418.83,418.83,0,0,1,8.71,86.66s2.4-94.9-2.33-113C357.35,594.25,315.71,521.13,315.71,521.13Z"/><path class="cls-7" d="M366.37,528.89s24.72,63.48,28.65,81.34,4.71,105.17,4.71,105.17,11.37-76.12,8.09-98.63-8-42.87-8-42.87l-15-11.08s-2.84-30.19-4.43-30.58Z"/><path class="cls-8" d="M351.94,761.64C400,747.06,394.2,739.77,411.69,748s39.41,13.87,29.15,16.52-25.75-5.83-25.75-5.83,2.43,13.12-6.31,17-47.57,5.3-69.21-.75S351.94,761.64,351.94,761.64Z"/><path class="cls-15" d="M350.59,759.38h9.57l-4.79,27.19s-18.86-2.8-17.45-4.68S350.59,759.38,350.59,759.38Z"/><path class="cls-16" d="M259.58,543.12c-18.77,32.83-24.72,50.74-40,112.2s-21.44,89.41-4.56,97.49c14,6.68,115.73,37.2,128.07,33.44,5.63.32,14.27-28.75,14.27-28.75l-92.61-41.28s26.8-64,31.43-106-15.95-67.08-26.27-67.08Z"/><path class="cls-8" d="M356.81,451.58C352.28,465.8,354.23,468.7,348,470s-12-4.89-13.86-13.64,1.73-16.91,8-18.24S359.53,443.06,356.81,451.58Z"/><path class="cls-14" d="M430.54,425.68C406,469.3,357.23,462.9,327.6,447.89c-24.16-12.24,68.92-58.6,68.92-58.6Z"/><path class="cls-14" d="M350.59,389.29c-9.1-27.44-46.38-21-63.28,15.56s9,60.92,24.63,52S350.59,389.29,350.59,389.29Z"/><path class="cls-17" d="M875.89,341.45a217.49,217.49,0,0,0,6.53-33.38L848,292.56q.27-4.9.27-9.87a183.78,183.78,0,0,0-2-27L879.09,237a217.34,217.34,0,0,0-9.67-32.61l-37.73,2.28A182.15,182.15,0,0,0,813,174.83L833.37,143a219.63,219.63,0,0,0-23.75-24.38l-32.33,19.55A182.65,182.65,0,0,0,746,118.64L749.24,81a217,217,0,0,0-32.33-10.54l-19.56,32.35A184,184,0,0,0,665.56,100c-1.68,0-3.36,0-5,.07L645.94,65.24a219.2,219.2,0,0,0-33.55,5.65l-2.29,37.72a180.94,180.94,0,0,0-33.87,14.73L547.11,99.26a219,219,0,0,0-27,20.65l15.5,34.46a183.44,183.44,0,0,0-23.16,28.74l-37-7.8A217.26,217.26,0,0,0,461,206.13l29.75,23.31a181.51,181.51,0,0,0-7.1,36.24L447.34,276c-.07,2.24-.12,4.48-.12,6.73A220.83,220.83,0,0,0,448.91,310l37.17,6.82a181,181,0,0,0,10.5,35.41l-27.41,26a217.46,217.46,0,0,0,17.24,29.32l36.08-11.24a184.37,184.37,0,0,0,25.75,26.43l-12.19,35.78a218.51,218.51,0,0,0,28.86,18l26.72-26.72a181.28,181.28,0,0,0,35.12,11.45l5.83,37.34a220.06,220.06,0,0,0,33,2.47h1L677.76,465a182.15,182.15,0,0,0,36.41-6.14l22.52,30.36a217.46,217.46,0,0,0,31.18-13.56l-6.81-37.18A183,183,0,0,0,790.4,416l34,16.41A219.54,219.54,0,0,0,845.79,406L822.5,376.21a182,182,0,0,0,15.62-33.47ZM665.56,372.54a89.85,89.85,0,1,1,89.84-89.85A89.85,89.85,0,0,1,665.56,372.54Z"/><path class="cls-18" d="M538.33,380.6a2.35,2.35,0,0,1-1.89-1,163.53,163.53,0,0,1-13.66-21.78,2.35,2.35,0,1,1,4.16-2.18,158,158,0,0,0,13.27,21.16,2.35,2.35,0,0,1-.49,3.28A2.29,2.29,0,0,1,538.33,380.6Z"/><path class="cls-18" d="M646.05,444l-.31,0a162.19,162.19,0,0,1-77.54-32.1,2.35,2.35,0,0,1,2.86-3.72,157.62,157.62,0,0,0,75.29,31.17,2.35,2.35,0,0,1-.3,4.68Z"/><rect class="cls-17" x="668.59" y="174.22" width="426.48" height="236.61"/><rect class="cls-18" x="673.28" y="179.38" width="409.59" height="215.5"/><g class="cls-19"><path class="cls-17" d="M1068.2,378H679.76a.94.94,0,0,1-.94-.94V182.42a.94.94,0,0,1,.94-.94H1068.2a.94.94,0,0,1,.94.94V377A.94.94,0,0,1,1068.2,378Zm-387.5-1.87h386.56V183.36H680.7Z"/><path class="cls-17" d="M1068.2,345.53H679.76a.94.94,0,0,1,0-1.88H1068.2a.94.94,0,1,1,0,1.88Z"/><path class="cls-17" d="M1068.2,313.09H679.76a.94.94,0,1,1,0-1.87H1068.2a.94.94,0,1,1,0,1.87Z"/><path class="cls-17" d="M1068.2,280.66H679.76a.94.94,0,0,1,0-1.88H1068.2a.94.94,0,0,1,0,1.88Z"/><path class="cls-17" d="M1068.2,248.23H679.76a.94.94,0,0,1,0-1.88H1068.2a.94.94,0,1,1,0,1.88Z"/><path class="cls-17" d="M1068.2,215.79H679.76a.94.94,0,1,1,0-1.87H1068.2a.94.94,0,1,1,0,1.87Z"/><path class="cls-17" d="M1003.46,378a.94.94,0,0,1-.94-.94V182.42a.94.94,0,1,1,1.88,0V377A.94.94,0,0,1,1003.46,378Z"/><path class="cls-17" d="M938.72,378a.94.94,0,0,1-.94-.94V182.42a.94.94,0,1,1,1.88,0V377A.94.94,0,0,1,938.72,378Z"/><path class="cls-17" d="M874,378A.94.94,0,0,1,873,377V182.42a.94.94,0,1,1,1.88,0V377A.94.94,0,0,1,874,378Z"/><path class="cls-17" d="M809.24,378a.94.94,0,0,1-.94-.94V182.42a.94.94,0,0,1,1.88,0V377A.94.94,0,0,1,809.24,378Z"/><path class="cls-17" d="M744.5,378a.94.94,0,0,1-.94-.94V182.42a.94.94,0,0,1,1.88,0V377A.94.94,0,0,1,744.5,378Z"/></g><path class="cls-20" d="M679.76,378.9a1.87,1.87,0,0,1-.84-3.55L743.41,343l33.25-32,30.89-64.56a1.86,1.86,0,0,1,.44-.59l35.11-31.28a1.87,1.87,0,0,1,2.95.61l29.6,63.65,35.17,62.48,26.49-30.43a1.89,1.89,0,0,1,1.35-.64,1.85,1.85,0,0,1,1.39.55l30.14,30.28,31.49-94.42a2,2,0,0,1,.45-.73l64.74-64.86a1.88,1.88,0,1,1,2.66,2.65L1005.1,248.3l-32.32,96.88a1.87,1.87,0,0,1-3.11.73l-30.86-31-26.9,30.91a1.87,1.87,0,0,1-3-.31l-36.51-64.87a.54.54,0,0,1-.07-.13l-28.57-61.42-32.94,29.35L779.9,313a2.07,2.07,0,0,1-.39.54L745.8,345.94a1.92,1.92,0,0,1-.46.33L680.6,378.7A1.79,1.79,0,0,1,679.76,378.9Z"/><path class="cls-17" d="M679.76,378.9a1.91,1.91,0,0,1-1.31-.53,1.88,1.88,0,0,1,0-2.66l94.93-97.3a1.88,1.88,0,0,1,2.62-.06l33.23,31.19L872.65,246a1.88,1.88,0,0,1,2.63,0l32.34,31.13L937.37,246a1.91,1.91,0,0,1,1.33-.58,2,2,0,0,1,1.35.55l62.9,63,63.57-127.4a1.88,1.88,0,0,1,3.36,1.68L1005.14,313a1.87,1.87,0,0,1-3,.49L938.75,250,909,281a1.86,1.86,0,0,1-2.65.05L874,249.92l-63.44,63.56a1.87,1.87,0,0,1-2.61,0l-33.21-31.17-93.65,96A1.84,1.84,0,0,1,679.76,378.9Z"/><path class="cls-17" d="M569.18,80.37H711.29a2.19,2.19,0,0,1,2.19,2.19V290.21a4.2,4.2,0,0,1-4.2,4.2H567a0,0,0,0,1,0,0V82.55A2.19,2.19,0,0,1,569.18,80.37Z"/><path class="cls-18" d="M570.73,84H706.45a2.09,2.09,0,0,1,2.09,2.09v198.4a4,4,0,0,1-4,4H568.64a0,0,0,0,1,0,0V86.08A2.09,2.09,0,0,1,570.73,84Z"/><path class="cls-17" d="M651,246.53v-3.69c0-2.91-2-5.27-4.55-5.27H506.12c-2.52,0-4.55,2.36-4.55,5.27v3.69c0,26.14,18.31,47.33,40.89,47.33H685.81C663.23,293.86,650.66,275.05,651,246.53Z"/><path class="cls-18" d="M647.52,250.19v-3a4.26,4.26,0,0,0-4.26-4.26H511.88a4.26,4.26,0,0,0-4.26,4.26v3a38.29,38.29,0,0,0,38.29,38.3h139.9C664.66,288.49,647.52,278.25,647.52,250.19Z"/><path class="cls-17" d="M693.86,169.31H593.93a5.74,5.74,0,0,1-5.74-5.74V109.28a5.74,5.74,0,0,1,5.74-5.73h99.93a5.74,5.74,0,0,1,5.73,5.73v54.29A5.74,5.74,0,0,1,693.86,169.31Zm-99.93-63.89a3.86,3.86,0,0,0-3.86,3.86v54.29a3.86,3.86,0,0,0,3.86,3.86h99.93a3.86,3.86,0,0,0,3.85-3.86V109.28a3.86,3.86,0,0,0-3.85-3.86Z"/><path class="cls-17" d="M660.64,195.66H550.8a2.84,2.84,0,1,1,0-5.67H660.64a2.84,2.84,0,1,1,0,5.67Z"/><path class="cls-17" d="M660.64,206H550.8a2.84,2.84,0,1,1,0-5.67H660.64a2.84,2.84,0,1,1,0,5.67Z"/><path class="cls-17" d="M660.64,216H550.8a2.84,2.84,0,1,1,0-5.68H660.64a2.84,2.84,0,1,1,0,5.68Z"/><rect class="cls-17" x="661.5" y="112.19" width="6.48" height="5.83" rx="0.09"/><rect class="cls-17" x="673.28" y="112.19" width="6.48" height="5.83" rx="0.09"/><rect class="cls-17" x="685.06" y="112.19" width="6.48" height="5.83" rx="0.09"/><rect class="cls-17" x="599.12" y="136.43" width="14.79" height="24.42"/><rect class="cls-17" x="639.89" y="138.46" width="14.79" height="22.38"/><rect class="cls-17" x="663.48" y="128.47" width="14.79" height="32.38"/><rect class="cls-17" x="619.11" y="146.06" width="14.79" height="14.79"/><path class="cls-17" d="M1483.49,322.74h52.65a52.65,52.65,0,1,1-52.65-52.65Z"/><path class="cls-20" d="M1545,315.37a52.65,52.65,0,0,0-52.65-52.65v52.65Z"/><path class="cls-20" d="M1439.66,315.37A52.65,52.65,0,0,0,1492.31,368,52.91,52.91,0,0,1,1439.66,315.37Z"/><path class="cls-20" d="M1492.31,262.72a52.65,52.65,0,0,0-52.65,52.65A52.91,52.91,0,0,1,1492.31,262.72Z"/><path class="cls-20" d="M1492.31,368A52.65,52.65,0,0,0,1545,315.37,52.91,52.91,0,0,1,1492.31,368Z"/><path class="cls-20" d="M849,216a4.67,4.67,0,1,0-4.67,4.67A4.67,4.67,0,0,0,849,216Z"/><path class="cls-17" d="M779.59,279.72a4.67,4.67,0,1,0-4.67,4.67A4.67,4.67,0,0,0,779.59,279.72Z"/><path class="cls-17" d="M878.65,247.29A4.67,4.67,0,1,0,874,252,4.67,4.67,0,0,0,878.65,247.29Z"/><path class="cls-17" d="M943.39,247.29a4.67,4.67,0,1,0-4.67,4.67A4.67,4.67,0,0,0,943.39,247.29Z"/><path class="cls-20" d="M1008.13,247.29a4.67,4.67,0,1,0-4.67,4.67A4.67,4.67,0,0,0,1008.13,247.29Z"/><circle class="cls-21" cx="532.38" cy="293.86" r="25.19"/><path class="cls-18" d="M529.88,302.66h0a1.41,1.41,0,0,1-1-.48L522,294.41a1.41,1.41,0,1,1,2.11-1.86l5.87,6.66,13.55-13.27a1.42,1.42,0,0,1,2,0,1.4,1.4,0,0,1,0,2l-14.62,14.31A1.38,1.38,0,0,1,529.88,302.66Z"/><rect class="cls-17" x="176.43" y="142.17" width="16.77" height="91.48"/><rect class="cls-17" x="247.5" y="168.78" width="16.77" height="64.87"/><rect class="cls-17" x="283.03" y="142.17" width="16.77" height="91.48"/><rect class="cls-17" x="318.57" y="201.22" width="16.77" height="32.43"/><rect class="cls-17" x="211.97" y="114.32" width="16.77" height="119.33"/><rect class="cls-17" x="354.22" y="168.78" width="16.77" height="64.87"/><rect class="cls-17" x="1208.23" y="150.45" width="16.77" height="48.52"/><rect class="cls-17" x="1423.17" y="166.24" width="16.77" height="32.74"/><rect class="cls-17" x="1279.3" y="85.44" width="16.77" height="113.53"/><rect class="cls-17" x="1314.83" y="147.94" width="16.77" height="51.03"/><rect class="cls-17" x="1350.37" y="133.5" width="16.77" height="65.47"/><rect class="cls-17" x="1243.76" y="118.41" width="16.77" height="80.56"/><rect class="cls-17" x="1386.02" y="99.75" width="16.77" height="99.22"/><g class="cls-22"><path class="cls-15" d="M183.26,427.14,123,390.26,112.05,460.1A70.75,70.75,0,0,0,183.26,427.14Z"/><path class="cls-21" d="M183.33,427.06l.36-.62a70.71,70.71,0,0,0,1.57-69.59c-21.34,11.18-8.63,4.39-62.3,33.41C183.36,427.2,174,421.5,183.33,427.06Z"/><path class="cls-17" d="M56.66,365.83,123,390.26l62.18-33.63C156.05,302.84,77.75,309.29,56.66,365.83Z"/><path class="cls-20" d="M112.05,460.1,123,390.26l-66.3-24.43C40.9,408.1,68.88,453.3,112.05,460.1Z"/><path class="cls-2" d="M186.45,426.34a73.3,73.3,0,0,0,1.83-68.74l0,0-1.11-2.06a.54.54,0,0,1-.07-.13l-.92-1.69h0a72.24,72.24,0,0,0-29.14-28.26A73.62,73.62,0,0,0,55.32,362.84l0,0L54.47,365l-.83,2.21h0a72.15,72.15,0,0,0,6.18,59.6A73.15,73.15,0,0,0,109.38,462v0l2.31.36,2.32.37v0a73.47,73.47,0,0,0,9,.56,73.2,73.2,0,0,0,61.06-33.08l.05,0,.46-.76s.75-1.22.75-1.22l.33-.56.05-.08,0-.06.75-1.22Zm-7.07-63.77,4.87-2.55a68.62,68.62,0,0,1-1.76,63.81l-.44-.26c-2.47-1.46-3.54-2.09-8.45-5.09l-45.94-28.09,38.14-20.63C171.4,366.75,173.69,365.55,179.38,362.57ZM59.72,364.46a68.39,68.39,0,0,1,122.21-8.76l-18.37,9.94c-3.79,2-9.09,4.9-18,9.71l-22,11.9-.56.31-1.85-1.13-.1.64-29-10.7Zm4.19,60a67.47,67.47,0,0,1-5.83-55.6L101.75,385l18.59,6.85L110.1,457.38A68.42,68.42,0,0,1,63.91,424.46Zm50.82,33.65,10-64,26,15.91c10.49,6.42,16.49,10.09,20.27,12.39l9,5.49A68.05,68.05,0,0,1,114.73,458.11Z"/></g><path class="cls-17" d="M80.51,542.18a21.05,21.05,0,1,1-21.05-21A21.05,21.05,0,0,1,80.51,542.18Z"/><path class="cls-18" d="M75,543.12a10.56,10.56,0,1,1-10.56-10.56A10.56,10.56,0,0,1,75,543.12Z"/><path class="cls-17" d="M1436.54,461.84h77.66a1.2,1.2,0,0,1,1.2,1.2V540.7a1.19,1.19,0,0,1-1.19,1.19h-77.67a1.19,1.19,0,0,1-1.19-1.19V463A1.19,1.19,0,0,1,1436.54,461.84Z"/><path class="cls-18" d="M1525.84,556.5h-52.25a16.27,16.27,0,0,1-16.25-16.25V488a16.27,16.27,0,0,1,16.25-16.24h52.25A16.27,16.27,0,0,1,1542.09,488v52.26A16.27,16.27,0,0,1,1525.84,556.5Zm-52.25-80.06A11.57,11.57,0,0,0,1462,488v52.26a11.57,11.57,0,0,0,11.56,11.55h52.25a11.56,11.56,0,0,0,11.56-11.55V488a11.56,11.56,0,0,0-11.56-11.55Z"/><path class="cls-17" d="M584.59,548.74,564.5,525.56a.46.46,0,0,1,0-.66l23.17-20.1a.48.48,0,0,1,.67.05L608.48,528a.46.46,0,0,1-.05.66l-23.17,20.09A.47.47,0,0,1,584.59,548.74Z"/><circle class="cls-17" cx="649.54" cy="557.71" r="11.78"/><path class="cls-17" d="M1669.16,521.23a11.74,11.74,0,1,1-11.74-11.75A11.74,11.74,0,0,1,1669.16,521.23Z"/><path class="cls-17" d="M1365.63,282a11.74,11.74,0,1,1-11.74-11.74A11.74,11.74,0,0,1,1365.63,282Z"/><circle class="cls-17" cx="1580.17" cy="427.31" r="9.15" transform="translate(-43.24 637.23) rotate(-22.5)"/><rect class="cls-17" x="1064.18" y="222.99" width="202.14" height="91.35" rx="1.36"/><rect class="cls-18" x="1069.7" y="246.99" width="191.09" height="63.06" rx="0.94"/><rect class="cls-18" x="1072.51" y="229.72" width="7.92" height="7.13" rx="0.11"/><rect class="cls-18" x="1086.91" y="229.72" width="7.92" height="7.13" rx="0.11"/><rect class="cls-18" x="1101.3" y="229.72" width="7.92" height="7.13" rx="0.11"/><path class="cls-17" d="M1253,260.82H1151.94a3,3,0,0,1,0-6H1253a3,3,0,1,1,0,6Z"/><path class="cls-17" d="M1177,307.47H1075.92a3,3,0,1,1,0-6.05H1177a3,3,0,0,1,0,6.05Z"/><rect class="cls-17" x="1184.12" y="301.42" width="12.53" height="6.05" rx="0.09"/><rect class="cls-17" x="1199.88" y="301.42" width="12.53" height="6.05" rx="0.09"/><path class="cls-17" d="M1254,274H1086.61a2.05,2.05,0,1,1,0-4.1H1254a2.05,2.05,0,0,1,0,4.1Z"/><path class="cls-17" d="M1254,282.85H1086.61a2.06,2.06,0,1,1,0-4.11H1254a2.06,2.06,0,0,1,0,4.11Z"/><path class="cls-17" d="M87.61,220.68a23.22,23.22,0,1,1-23.22-23.22A23.22,23.22,0,0,1,87.61,220.68Z"/><path class="cls-17" d="M388.3,289H221.47a3.1,3.1,0,1,1,0-6.19H388.3a3.1,3.1,0,1,1,0,6.19Z"/><path class="cls-17" d="M388.3,304.52H221.47a3.1,3.1,0,0,1,0-6.2H388.3a3.1,3.1,0,0,1,0,6.2Z"/><path class="cls-17" d="M1014.82,525.66a117,117,0,0,0,.73-13c0-2.32-.08-4.63-.21-6.92l-21.54-7a94.29,94.29,0,0,0-7.62-25.8l14.28-17.57a116.3,116.3,0,0,0-11.31-16.44l-21.54,7a95.68,95.68,0,0,0-21.32-16.38l1.22-22.63a114.88,114.88,0,0,0-18.8-6.67l-13.3,18.36a95.07,95.07,0,0,0-15.94-1.34,96.37,96.37,0,0,0-10.94.63l-12.31-19a114.62,114.62,0,0,0-19.13,5.65l0,22.66A95.51,95.51,0,0,0,835,442.44l-21.13-8.16a116.87,116.87,0,0,0-12.17,15.82L815,468.41a94.61,94.61,0,0,0-9,25.36l-21.87,5.82a116.91,116.91,0,0,0-.73,13c0,2.33.08,4.64.21,6.93l21.54,7a94.39,94.39,0,0,0,7.62,25.8l-14.28,17.57a116.3,116.3,0,0,0,11.31,16.44l21.54-7a95.42,95.42,0,0,0,21.32,16.39l-1.22,22.63a114.85,114.85,0,0,0,18.8,6.66l13.3-18.35A96.1,96.1,0,0,0,899.47,608a94.16,94.16,0,0,0,10.95-.63l12.31,19a115.59,115.59,0,0,0,19.13-5.66l0-22.66A95.74,95.74,0,0,0,964,582.81L985.13,591a116.37,116.37,0,0,0,12.16-15.82L984,556.84a94.61,94.61,0,0,0,9-25.36ZM899.47,558.15A45.53,45.53,0,1,1,945,512.62,45.52,45.52,0,0,1,899.47,558.15Z"/><path class="cls-18" d="M961.57,565.19a2.34,2.34,0,0,1-1.8-3.84,76.39,76.39,0,0,0,13.45-73.57,2.35,2.35,0,0,1,4.44-1.53,81.13,81.13,0,0,1-14.28,78.1A2.38,2.38,0,0,1,961.57,565.19Z"/><path class="cls-18" d="M955,457.74a2.36,2.36,0,0,1-1.61-.64,75.89,75.89,0,0,0-26.25-16.18,2.35,2.35,0,0,1,1.6-4.41,80.64,80.64,0,0,1,27.87,17.17,2.35,2.35,0,0,1-1.61,4.06Z"/><path class="cls-18" d="M881.81,438.76a2.35,2.35,0,0,1-.57-4.62,81.31,81.31,0,0,1,19.87-2.46,2.35,2.35,0,1,1,0,4.69,76.43,76.43,0,0,0-18.72,2.32A2.25,2.25,0,0,1,881.81,438.76Z"/></svg>